<svg xmlns="http://www.w3.org/2000/svg" width="256" height="256"><g style="display:inline" transform="translate(-67.678 -18.684)"><rect width="256" height="256" x="67.678" y="18.684" rx="120" ry="120" style="fill:#fff;stroke:none;stroke-width:4;stroke-linejoin:bevel;stroke-miterlimit:2;paint-order:fill markers stroke;stop-color:#000"/></g><path d="M195.666 20.712c-17.874 0-28.296.4-32.797 3.723-4.501 3.322-2.442 15.632-1.649 18.231.798 2.614 2.477 4.955 3.947 5.517 1.061.406 10.502 0 11.028.85.131.207-.96 4.965-.212 10.502-8.31-.097-23.253 5.986-26.297 14.412-11.488-2.524-26.656 20.69-23.437 25.79-3.585.923-14.72 14.932-9.775 31.087-3.967 3.863-7.441 14.347-1.778 28.986-1.488 2.952-8.992 12.42-.013 29.774-5.385 8.586-3.673 23.47-.42 32.18 9.769 4.29 36.12 3.083 43.045.171 2.156 1.117 8.253 1.616 19.33 1.67 1.193 25.093 16.217 49.045 19.026 49.052 1.59.003 15.745-19.712 19.043-48.925 11.7-.024 19.28.709 20.92-3.18 2.534 5.39 35.089 4.066 40.716 1.408 3.397-1.605 7.55-21.254 1.482-31.966 4.623-10.409 3.905-28.64-.162-31.476 3.954-9.475 1.25-24.134-2.675-27.583 3.04-6.775-1.25-28.002-9.77-29.598 1.029-12.374-9.349-26.212-21.279-26.839-1.66-7.797-21.98-17.46-30.493-14.782 1.515-5.997.493-9.596-.365-11.308 2 .186 11.324.163 12.627-.097 5.384-1.075 6.994-20.792 2.542-24.002-4.451-3.21-14.714-3.594-32.582-3.594-10.864 0 0 0 0-.001 0 0 10.868-.001 0-.001zm29.295 6.91c2.21 1.59 1.3 15.518-1.334 15.567-13.636.252-47.468.311-55.813-.187-2.233-.133-3.213-12.882-2.106-14.739 2.468-4.14 55.57-3.289 59.253-.64zm-16.737 31.28c-2.907.897-7.937-3.788-22.147-11.242 6.794-.394 17.635.178 21.596.616 2.525.28 3.459 9.727.551 10.625zm-25.328 2.254c-2.126-1.933-2.431-11.549-.662-10.92 7.464 2.65 20.127 11.414 25.441 14.583 3.55 2.116 2.687 10.958.496 10.958-2.866 0-22.912-12.471-25.275-14.62zm54.558 13.28c.01 1.052-12.07 22.06-17.598 23.599-5.345 1.488-7.524-.377-7.943-2.009 3.823-5.355 2.596-13.939.873-16.837 2.15-5.073 1.648-11.71-.002-14.29 8.824-1.91 24.652 8.122 24.67 9.537zm-59.599-9.823c-.156.121-3.451 7.394.085 14.166-4.529 8.228.921 16.72.207 18.539-.791 2.014-2.911 1.8-4.356 1.98-10.667-4.181-20.369-24.489-19.218-25.613 6.326-6.182 14.755-9.321 23.282-9.072zm4.783 13.458c-2.27-1.174-1.888-11.495.258-10.395 9.226 4.731 16.889 8.875 24.276 13.867 1.174.793 3.708 9.184.999 10.27-2.202.882-19.304-10.52-25.533-13.742zm77.01 21.433c-1.964 3.35-19.576 9.97-24.605 13.923-.153.12-3.754 2.785-8.392-4.064-6.153-9.087 16.46-30.303 17.868-29.987 5.912 1.325 18.375 14.627 15.128 20.128zm-92.412 4.316c1.233 5.231-7.414 11.143-9.193 10.705-1.779-.439-18.424-10.162-26.823-16.328-1.485-2.62 11.584-18.992 16.135-19.093 6.033-.133 19.286 22.191 19.881 24.716zm17.52-20.155c7.528 4.388 18.627 10.58 22.745 13.258 1.918 1.247 1.422 6.534-.128 8.278-2.128 2.394-22.359-9.747-25.296-11.893-1.957-1.43-2.263-12.524 2.68-9.643zm22.834 28.451c-.073 2.16-15.771.518-22.842.747-4.765.153-4.646-14.085-1.795-12.864 9.607 4.117 24.727 9.361 24.637 12.117zm-52.24 8.073c3.561 2.747-.155 15.796-2.04 15.686-5.817-.341-32.28-6.098-32.741-8.292-1.378-6.55 2.025-20.39 7.769-22.45 3.283-1.178 20.113 9.734 27.012 15.056zm108.028-14.329c3.903-.419 9.18 18.857 8.094 20.595-2.197 3.518-29.285 9.598-32.324 9.398-4.401-.29-6.376-14.812-1.442-18.24 7.764-5.396 16.413-10.757 25.672-11.753zm-34.95 14.708c2.884 1.654 2.148 15.562-2.714 15.668-19.681.43-39.304-1.015-59.055.049-6.635.357-6.129-15.57-1.565-16.18 3.045-.408 59.679-1.633 63.334.463zm-75.91 22.801c.261 1.242.835 16.226-2.55 16.636-10.757.451-25.032-.55-30.743-3.351-2.669-1.31-2.606-19.289.75-21.677 2.907-2.069 31.77 4.739 32.543 8.392zm118.945-8.392c3.395 2.42 4.655 19.106 1.908 20.653-5.037 2.839-20.353 1.91-30.652 4.64-4.664 1.236-5.673-14.459-3.978-16.605 2.796-3.538 29.796-10.775 32.722-8.688zm-92.915 6.642c11.326.024 22.654.085 33.978.239-3.757 9.744-2.633 24.166-2.552 45.025-6.687.036-10.867.072-11.897.256-.073-14.467.197-32.058-2.093-31.943-1.866.097-2.52 10.993-2.546 31.916-1.507-.32-4.833-.4-12.086-.382.359-23.942-.583-38.864-2.804-45.11zm61.622 23.753c3.313-1.623 32.094-3.27 33.894-1.757 3.192 2.684 2.607 19.468.29 22.099-2.318 2.63-33.3 1.963-35.157.024-1.855-1.939-1.726-19.043.974-20.365zm-90.317 20.773c-3.645.216-30.394.557-31.71-1.22-2.688-3.627-1.864-19.154.284-21.171 1.174-1.103 24.93-.207 31.554 1.453 2.932.734 3.012 20.752-.127 20.938zm89.894 31.08c-2.252-.483-2.734-25.923-.22-25.713 10.73.896 24.652.707 32.62.126 4.542-.33 4.23 23.386.492 25.036-3.738 1.65-25.486 2.142-32.893.552zm-87.2-.013c-6.08 1.685-29.546 2.164-33.697.257-4.594-2.123-2.622-25.395.025-25.469 11.615-.32 22.688.194 29.08.31 8.04.144 6.4 3.3 6.47 11.232.074 7.932.882 12.905-1.881 13.67zm38.443.892c-10.32.784-18.241.399-28.512-.441-3.295-.27-4.366-20.824-1.983-23.548 2.932-3.351 27.692-2.267 32.12-.579 1.904.726 1.932 24.298-1.625 24.568zm8.158-1.714c-1.16-.974-2.709-22.767 1.04-23.124 9.859-.94 23.295-1.413 29.884-1.507 3.704-.048 4.885 25.524.036 25.783-2.91.155-27.024 2.158-30.961-1.152zm9.724 7.398c-.89 15.434-6.678 29.348-13.211 43.067-7.97-13.35-11.103-28.016-13.215-43.23 7.879-.036 10.084-.126 11.29-1.026.036 8.465.787 25.511 2.195 25.455 1.56-.06 1.694-17.455 1.593-25.51 0 0 4.25 1.226 11.348 1.243z" style="display:inline;opacity:1;stroke-width:1.33333" transform="translate(-67.678 -18.684)"/></svg>