<svg width="120" height="24" version="1.1" viewBox="0 0 31.75 6.35" xmlns="http://www.w3.org/2000/svg">
 <g transform="translate(-14.248 -150.44)">
  <g transform="matrix(1.5 0 0 1.5 .8061 -75.464)" stroke-width=".66667">
   <path id="a" d="m18.783 150.96c-0.025232 0.00262-0.046165 0.02542-0.072003 0.07717l-1.4828 3.0703-0.61736-1.367c-0.02756-0.0551-0.044101-0.05512-0.055121-0.05512 0 0-0.022054-4e-5 -0.060634 0.02756l-0.33073 0.25356c-0.0441 0.0386-0.044097 0.04412-0.044097 0.05512 0 0.0221 0.005502 0.03858 0.033072 0.03858 0.02205 0 0.08268-0.04957 0.12127-0.07717 0.01654-0.0165 0.07166-0.05508 0.11024-0.08268l0.69453 1.5214c0.02205 0.0551 0.038588 0.05512 0.071658 0.05512 0.05512 0 0.066155-0.01645 0.088195-0.06615l1.5985-3.3073c6.24e-4 -0.00141 0.001133-0.00245 0.001722-0.00379h10.768a0.07 0.07 0 0 0 0.070624-0.07028 0.07 0.07 0 0 0-0.070624-0.06821h-10.808c-0.003835-6.4e-4 -0.007579-0.00104-0.011714-0.00104-0.001722 0-0.003485-1.7e-4 -0.005167 0zm-7.6681 0.72175c-0.05512 0-0.38585 0.03309-0.44648 0.03859-0.02756 6e-3 -0.049609 0.02239-0.049609 0.06649s0.033072 0.04409 0.082682 0.04409c0.17088 0 0.17639 0.02214 0.17639 0.06064l-0.011025 0.07166-0.20946 0.83233c-0.06615-0.13229-0.16537-0.226-0.32522-0.226-0.4079 0-0.84336 0.51814-0.84336 1.0308 0 0.33071 0.19293 0.56223 0.46302 0.56223 0.071658 0 0.24805-0.01649 0.45751-0.26458 0.02756 0.14883 0.15434 0.26458 0.3197 0.26458 0.12678 0 0.20395-0.08269 0.26458-0.19292 0.05512-0.12678 0.10473-0.34175 0.10473-0.34727 0-0.0386-0.033067-0.03858-0.044097-0.03858-0.03307 0-0.03858 0.0162-0.04961 0.0658-0.06063 0.226-0.12127 0.43546-0.26458 0.43546-0.09922 0-0.10473-0.09336-0.10473-0.15951 0-0.0882 0.005496-0.11024 0.016536-0.17087l0.50712-2.0343s2e-6 -0.03859-0.044098-0.03859zm17.426 0c-0.08268 0-0.33624 0.02759-0.42995 0.03859-0.02756 0-0.066146 0.00629-0.066146 0.06649 0 0.0441 0.033072 0.04409 0.082682 0.04409 0.17088 0 0.17639 0.02214 0.17639 0.06064l-0.011024 0.07166-0.50712 2.023c-0.01654 0.0496-0.016537 0.05507-0.016537 0.07717 0 0.0827 0.07166 0.09921 0.10473 0.09921 0.05512 0 0.11024-0.0441 0.12678-0.0937l0.066146-0.26459 0.07717-0.31419c0.02205-0.0827 0.044104-0.15985 0.060633-0.23702 0.0055-0.0221 0.038586-0.1378 0.038586-0.15985 0.01102-0.0331 0.12127-0.226 0.24253-0.32522 0.07717-0.0551 0.1819-0.12127 0.33624-0.12127 0.14883 0 0.18741 0.12127 0.18741 0.24805 0 0.18741-0.13229 0.57326-0.21497 0.78824-0.02756 0.0772-0.04961 0.12126-0.04961 0.19292 0 0.16537 0.12678 0.28663 0.29214 0.28663 0.33073 0 0.45751-0.51263 0.45751-0.54019 0-0.0386-0.027555-0.03858-0.038585-0.03858-0.03858 0-0.038581 0.01104-0.055121 0.06614-0.04961 0.18742-0.16536 0.43546-0.35829 0.43546-0.06063 0-0.082683-0.0331-0.082683-0.11575 0-0.0882 0.027564-0.17088 0.060634-0.24805 0.05512-0.15434 0.21497-0.57326 0.21497-0.77721 0-0.226-0.1378-0.37483-0.40239-0.37483-0.22049 0-0.39136 0.11025-0.52366 0.2701l0.27561-1.1193s3e-6 -0.03859-0.044097-0.03859zm-8.7977 0.09922c-0.22048 0.226-0.52917 0.226-0.63941 0.226v0.11059c0.07166 0 0.27561-1e-5 0.45751-0.09371v1.8245c0 0.12678-0.01102 0.16537-0.32522 0.16537h-0.11024v0.11024c0.12127-0.011 0.42444-0.01102 0.56775-0.01102 0.1378 0 0.44648 2e-5 0.56775 0.01102v-0.11024h-0.11024c-0.3197 0-0.32522-0.0386-0.32522-0.16537v-1.9737c0-0.0882-3e-6 -0.09371-0.082683-0.09371zm3.1857 0s-0.011021 2e-5 -0.027561 0.01102c-0.071659 0.0331-0.24253 0.10474-0.47956 0.10474-0.1378 0-0.30317-0.02762-0.46853-0.09922-0.02756-0.011-0.033065-0.01103-0.038585-0.01103-0.03859 0-0.038585 0.02793-0.038585 0.08303v1.0418c0 0.0606 0 0.08819 0.049609 0.08819 0.02756 0 0.03307-0.0063 0.04961-0.0279 0.03859-0.0551 0.16536-0.24805 0.452-0.24805 0.1819 0 0.2701 0.15985 0.29766 0.226 0.05512 0.13229 0.066145 0.26458 0.066145 0.44097 0 0.12678-4e-6 0.33624-0.088194 0.48507-0.08268 0.13781-0.21498 0.226-0.37483 0.226-0.25356 0-0.45751-0.18742-0.51814-0.39137 0.01102 0 0.022054 0.0062 0.060634 0.0062 0.11576 0 0.17639-0.08819 0.17639-0.17087 0-0.0882-0.06063-0.17639-0.17639-0.17639-0.04961 0-0.17088 0.02759-0.17088 0.18741 0 0.30317 0.24254 0.64492 0.6339 0.64492 0.4079 0 0.76619-0.33623 0.76619-0.78272v-6.9e-4c0-0.41892-0.28663-0.7717-0.66697-0.7717-0.16536 0-0.3197 0.0551-0.44648 0.1819v-0.68902c0.07166 0.0221 0.18741 0.0441 0.29766 0.0441 0.43546 0 0.68351-0.3197 0.68351-0.3638 0-0.022-0.011025-0.03859-0.038585-0.03859zm1.7225 0.61736c-0.03858 0-0.071658 0.02766-0.071658 0.07166 0 0.0221 0.005497 0.02755 0.044097 0.06615l0.70556 0.70555-0.70556 0.71107c-0.03859 0.0386-0.044097 0.04414-0.044097 0.06614 0 0.0441 0.033068 0.07166 0.071658 0.07166 0.02756 0 0.03307-0.00601 0.07717-0.04961l0.70004-0.70004 0.7276 0.7276c0.0055 6e-3 0.027559 0.0224 0.049609 0.0224 0.0441 0 0.071658-0.02756 0.071658-0.07166 0-6e-3 -4e-6 -0.01683-0.011024-0.03893-0.0055-6e-3 -0.56224-0.55672-0.73863-0.73863l0.64492-0.63941c0.01654-0.022 0.071665-0.06609 0.088195-0.08819 0-6e-3 0.016536-0.0221 0.016536-0.0441 0-0.0441-0.027558-0.07131-0.071658-0.07131-0.02756 0-0.03859 0.01101-0.07717 0.04961l-0.70004 0.69969-0.70004-0.70004c-0.0441-0.0441-0.04961-0.04961-0.07717-0.04961zm-11.718 0.02756c-0.33073 0-0.5898 0.24805-0.5898 0.57327 0 0.0772 0.02756 0.10473 0.04961 0.10473 0.03307 0 0.049609-0.06609 0.049609-0.08269 0.01654-0.29215 0.30317-0.39687 0.49058-0.39687 0.20395 0 0.38034 0.10473 0.56224 0.23151 0.18741 0.12678 0.38034 0.25356 0.60634 0.25356 0.32522 0 0.5898-0.25357 0.5898-0.57326 0-0.0772-0.027559-0.11025-0.049609-0.11025-0.01654 0-0.049609 0.01652-0.049609 0.09922-0.01654 0.24254-0.25907 0.38585-0.49058 0.38585-0.20395 0-0.38034-0.11025-0.56224-0.23151-0.18741-0.12678-0.38034-0.25356-0.60634-0.25356zm-2.5962 0.22049c0.226 0 0.27561 0.28663 0.27561 0.30868 0 0.0221-0.005504 0.04413-0.011024 0.06063l-0.17088 0.68902c-0.02205 0.0661-0.022048 0.0717-0.071658 0.13229-0.15434 0.19292-0.29766 0.24805-0.39687 0.24805-0.17639 0-0.226-0.19293-0.226-0.33073 0-0.17639 0.11024-0.60633 0.19293-0.7717 0.11024-0.20395 0.26458-0.33624 0.4079-0.33624zm2.5962 0.59531c-0.33073 0-0.5898 0.25355-0.5898 0.57326 0 0.0827 0.02756 0.11025 0.04961 0.11025 0.03307 0 0.049609-0.06608 0.049609-0.08268 0.01654-0.29766 0.30317-0.40239 0.49058-0.40239 0.20395 0 0.38034 0.11025 0.56224 0.23151 0.18741 0.12678 0.38034 0.25356 0.60634 0.25356 0.33624 0 0.5898-0.25907 0.5898-0.56775 0-0.10473-0.044099-0.11025-0.049609-0.11025-0.01654 0-0.049609 0.01651-0.049609 0.09371-0.01654 0.24254-0.25907 0.39136-0.49058 0.39136-0.20395 0-0.38034-0.11024-0.56224-0.23702-0.18741-0.12678-0.38034-0.25356-0.60634-0.25356zm8.1036 0.50712c-0.10473 0-0.18741 0.08819-0.18741 0.18741 0 0.10473 0.08268 0.18742 0.18741 0.18742 0.09922 0 0.1819-0.08271 0.1819-0.18742 0-0.0992-0.08268-0.18741-0.1819-0.18741z" stroke-width=".23518"/>
  </g>
 </g>
</svg>
