<?xml version="1.0" encoding="UTF-8"?>
<svg width="177.57" height="35.168" version="1.1" viewBox="0 0 17.757 3.5168" xmlns="http://www.w3.org/2000/svg" xmlns:ns48="http://www.iki.fi/pav/software/textext/"><g transform="translate(-85.498 -150.31)"><g transform="matrix(.35278 0 0 .35278 85.46 137.66)" ns48:alignment="middle center" ns48:jacobian_sqrt="0.352778" ns48:pdfconverter="inkscape" ns48:preamble="/usr/share/inkscape/extensions/textext/default_packages.tex" ns48:scale="1.0" ns48:texconverter="pdflatex" ns48:text="$R'=Rk$\n\n$d=\\sqrt{2hR'}$\n\n$x=\\sqrt{(o-d)^2+R'^2}-R'$\n\n$d\\approx\\sqrt{1.5kh}$\n\n$x\\approx\\frac{(d-o)^2}{1.5k}$" ns48:version="1.12.0"><defs></defs><g><g transform="translate(-149.01 -127.26)"><g transform="translate(148.71 172)"><path d="m5.1406-6.8125s0-0.10938-0.125-0.10938c-0.15625 0-1.0938 0.09375-1.2656 0.10938-0.078125 0.015625-0.14062 0.0625-0.14062 0.1875s0.09375 0.125 0.23438 0.125c0.48438 0 0.5 0.0625 0.5 0.17188l-0.03125 0.20312-0.59375 2.3594c-0.1875-0.375-0.46875-0.64062-0.92188-0.64062-1.1562 0-2.3906 1.4688-2.3906 2.9219 0 0.9375 0.54688 1.5938 1.3125 1.5938 0.20312 0 0.70312-0.046875 1.2969-0.75 0.078125 0.42188 0.4375 0.75 0.90625 0.75 0.35938 0 0.57812-0.23438 0.75-0.54688 0.15625-0.35938 0.29688-0.96875 0.29688-0.98438 0-0.10938-0.09375-0.10938-0.125-0.10938-0.09375 0-0.10938 0.046875-0.14062 0.1875-0.17188 0.64062-0.34375 1.2344-0.75 1.2344-0.28125 0-0.29688-0.26562-0.29688-0.45312 0-0.25 0.015625-0.3125 0.046875-0.48438zm-2.0625 5.625c-0.0625 0.1875-0.0625 0.20312-0.20312 0.375-0.4375 0.54688-0.84375 0.70312-1.125 0.70312-0.5 0-0.64062-0.54688-0.64062-0.9375 0-0.5 0.3125-1.7188 0.54688-2.1875 0.3125-0.57812 0.75-0.95312 1.1562-0.95312 0.64062 0 0.78125 0.8125 0.78125 0.875s-0.015625 0.125-0.03125 0.17188z"/></g><g transform="translate(156.67 172)"><path d="m7.2031-4.5c0-0.21875-0.078125-0.3125-0.14062-0.3125-0.046875 0-0.14062 0.046875-0.14062 0.28125-0.046875 0.6875-0.73438 1.0938-1.3906 1.0938-0.57812 0-1.0781-0.3125-1.5938-0.65625-0.53125-0.35938-1.0781-0.71875-1.7188-0.71875-0.9375 0-1.6719 0.70312-1.6719 1.625 0 0.21875 0.078125 0.29688 0.14062 0.29688 0.09375 0 0.14062-0.1875 0.14062-0.23438 0.046875-0.82812 0.85938-1.125 1.3906-1.125 0.57812 0 1.0781 0.29688 1.5938 0.65625 0.53125 0.35938 1.0781 0.71875 1.7188 0.71875 0.92188 0 1.6719-0.71875 1.6719-1.625zm0 2.3281c0-0.29688-0.125-0.3125-0.14062-0.3125-0.046875 0-0.14062 0.046875-0.14062 0.26562-0.046875 0.6875-0.73438 1.1094-1.3906 1.1094-0.57812 0-1.0781-0.3125-1.5938-0.67188-0.53125-0.35938-1.0781-0.71875-1.7188-0.71875-0.9375 0-1.6719 0.71875-1.6719 1.625 0 0.23438 0.078125 0.3125 0.14062 0.3125 0.09375 0 0.14062-0.1875 0.14062-0.23438 0.046875-0.84375 0.85938-1.1406 1.3906-1.1406 0.57812 0 1.0781 0.3125 1.5938 0.65625 0.53125 0.35938 1.0781 0.71875 1.7188 0.71875 0.95312 0 1.6719-0.73438 1.6719-1.6094z"/></g><g transform="translate(167.18 163.51)"><path d="m3.875 8.5156-1.75-3.875c-0.078125-0.15625-0.125-0.15625-0.15625-0.15625 0 0-0.0625 0-0.17188 0.078125l-0.9375 0.71875c-0.125 0.10938-0.125 0.125-0.125 0.15625 0 0.0625 0.015625 0.10938 0.09375 0.10938 0.0625 0 0.23438-0.14062 0.34375-0.21875 0.046875-0.046875 0.20312-0.15625 0.3125-0.23438l1.9688 4.3125c0.0625 0.15625 0.10938 0.15625 0.20312 0.15625 0.15625 0 0.1875-0.046875 0.25-0.1875l4.5312-9.375c0.0625-0.14062 0.0625-0.17188 0.0625-0.20312 0-0.09375-0.078125-0.20312-0.20312-0.20312-0.078125 0-0.14062 0.0625-0.21875 0.21875z"/></g></g><path d="m26.475 35.851h23.969v0.398h-23.969z"/><g transform="translate(-149.01 -127.26)"><g transform="translate(175.48 172)"><path d="m2.9375-6.375c0-0.25 0-0.26562-0.23438-0.26562-0.625 0.64062-1.5 0.64062-1.8125 0.64062v0.3125c0.20312 0 0.78125 0 1.2969-0.26562v5.1719c0 0.35938-0.03125 0.46875-0.92188 0.46875h-0.3125v0.3125c0.34375-0.03125 1.2031-0.03125 1.6094-0.03125 0.39062 0 1.2656 0 1.6094 0.03125v-0.3125h-0.3125c-0.90625 0-0.92188-0.10938-0.92188-0.46875z"/></g><g transform="translate(180.46 172)"><path d="m1.9062-0.53125c0-0.28125-0.23438-0.53125-0.51562-0.53125-0.29688 0-0.53125 0.25-0.53125 0.53125 0 0.29688 0.23438 0.53125 0.53125 0.53125 0.28125 0 0.51562-0.23438 0.51562-0.53125z"/></g><g transform="translate(183.23 172)"><path d="m4.4688-2c0-1.1875-0.8125-2.1875-1.8906-2.1875-0.46875 0-0.90625 0.15625-1.2656 0.51562v-1.9531c0.20312 0.0625 0.53125 0.125 0.84375 0.125 1.2344 0 1.9375-0.90625 1.9375-1.0312 0-0.0625-0.03125-0.10938-0.10938-0.10938 0 0-0.03125 0-0.078125 0.03125-0.20312 0.09375-0.6875 0.29688-1.3594 0.29688-0.39062 0-0.85938-0.078125-1.3281-0.28125-0.078125-0.03125-0.09375-0.03125-0.10938-0.03125-0.10938 0-0.10938 0.078125-0.10938 0.23438v2.9531c0 0.17188 0 0.25 0.14062 0.25 0.078125 0 0.09375-0.015625 0.14062-0.078125 0.10938-0.15625 0.46875-0.70312 1.2812-0.70312 0.51562 0 0.76562 0.45312 0.84375 0.64062 0.15625 0.375 0.1875 0.75 0.1875 1.25 0 0.35938 0 0.95312-0.25 1.375-0.23438 0.39062-0.60938 0.64062-1.0625 0.64062-0.71875 0-1.2969-0.53125-1.4688-1.1094 0.03125 0 0.0625 0.015625 0.17188 0.015625 0.32812 0 0.5-0.25 0.5-0.48438 0-0.25-0.17188-0.5-0.5-0.5-0.14062 0-0.48438 0.078125-0.48438 0.53125 0 0.85938 0.6875 1.8281 1.7969 1.8281 1.1562 0 2.1719-0.95312 2.1719-2.2188z"/></g><g transform="translate(188.21 172)"><path d="m2.8594-6.8125s0-0.10938-0.125-0.10938c-0.23438 0-0.95312 0.078125-1.2188 0.10938-0.078125 0-0.1875 0.015625-0.1875 0.1875 0 0.125 0.09375 0.125 0.23438 0.125 0.48438 0 0.5 0.0625 0.5 0.17188l-0.03125 0.20312-1.4375 5.7344c-0.046875 0.14062-0.046875 0.15625-0.046875 0.21875 0 0.23438 0.20312 0.28125 0.29688 0.28125 0.125 0 0.26562-0.09375 0.32812-0.20312 0.046875-0.09375 0.5-1.9375 0.5625-2.1875 0.34375 0.03125 1.1562 0.1875 1.1562 0.84375 0 0.078125 0 0.10938-0.03125 0.21875-0.015625 0.10938-0.03125 0.23438-0.03125 0.34375 0 0.57812 0.39062 0.98438 0.90625 0.98438 0.29688 0 0.57812-0.15625 0.79688-0.53125 0.25-0.4375 0.35938-0.98438 0.35938-1 0-0.10938-0.09375-0.10938-0.125-0.10938-0.09375 0-0.10938 0.046875-0.14062 0.1875-0.20312 0.71875-0.42188 1.2344-0.85938 1.2344-0.20312 0-0.32812-0.10938-0.32812-0.46875 0-0.17188 0.046875-0.40625 0.078125-0.5625 0.046875-0.17188 0.046875-0.20312 0.046875-0.3125 0-0.64062-0.625-0.92188-1.4844-1.0469 0.3125-0.17188 0.64062-0.48438 0.85938-0.73438 0.48438-0.53125 0.9375-0.95312 1.4219-0.95312 0.0625 0 0.078125 0 0.09375 0.015625 0.125 0.015625 0.125 0.015625 0.21875 0.078125 0.015625 0 0.015625 0.015625 0.03125 0.03125-0.46875 0.03125-0.5625 0.42188-0.5625 0.54688 0 0.15625 0.10938 0.34375 0.375 0.34375s0.54688-0.21875 0.54688-0.60938c0-0.29688-0.23438-0.625-0.67188-0.625-0.28125 0-0.73438 0.078125-1.4531 0.875-0.34375 0.375-0.73438 0.78125-1.1094 0.92188z"/></g><g transform="translate(193.72 172)"><path d="m2.8594-6.8125s0-0.10938-0.125-0.10938c-0.23438 0-0.95312 0.078125-1.2188 0.10938-0.078125 0-0.1875 0.015625-0.1875 0.1875 0 0.125 0.09375 0.125 0.23438 0.125 0.48438 0 0.5 0.0625 0.5 0.17188l-0.03125 0.20312-1.4375 5.7344c-0.046875 0.14062-0.046875 0.15625-0.046875 0.21875 0 0.23438 0.20312 0.28125 0.29688 0.28125 0.15625 0 0.3125-0.125 0.35938-0.26562l0.1875-0.75 0.21875-0.89062c0.0625-0.23438 0.125-0.45312 0.17188-0.67188 0.015625-0.0625 0.10938-0.39062 0.10938-0.45312 0.03125-0.09375 0.34375-0.64062 0.6875-0.92188 0.21875-0.15625 0.51562-0.34375 0.95312-0.34375 0.42188 0 0.53125 0.34375 0.53125 0.70312 0 0.53125-0.375 1.625-0.60938 2.2344-0.078125 0.21875-0.14062 0.34375-0.14062 0.54688 0 0.46875 0.35938 0.8125 0.82812 0.8125 0.9375 0 1.2969-1.4531 1.2969-1.5312 0-0.10938-0.078125-0.10938-0.10938-0.10938-0.10938 0-0.10938 0.03125-0.15625 0.1875-0.14062 0.53125-0.46875 1.2344-1.0156 1.2344-0.17188 0-0.23438-0.09375-0.23438-0.32812 0-0.25 0.078125-0.48438 0.17188-0.70312 0.15625-0.4375 0.60938-1.625 0.60938-2.2031 0-0.64062-0.39062-1.0625-1.1406-1.0625-0.625 0-1.1094 0.3125-1.4844 0.76562z"/></g></g></g></g></g></svg>
