<svg width="96" height="24" version="1.1" viewBox="0 0 25.4 6.35" xmlns="http://www.w3.org/2000/svg">
 <g transform="translate(-23.61 -130.09)">
  <path id="a" d="m38.424 130.62c-0.04134 0-0.07441 0.03311-0.11576 0.11576l-2.2242 4.6054-0.92604-2.0505c-0.04134-0.0827-0.066152-0.08268-0.082682-0.08268 0 0-0.033071 4e-5 -0.09095 0.04134l-0.49609 0.38034c-0.06615 0.0579-0.066146 0.06608-0.066146 0.08268 0 0.0331 0.008299 0.05788 0.049609 0.05788 0.03307 0 0.12402-0.07441 0.1819-0.11576 0.0248-0.02479 0.10749-0.08269 0.16536-0.12402l1.0418 2.282c0.03307 0.0827 0.05788 0.08269 0.10749 0.08269 0.08268 0 0.099219-0.02482 0.13229-0.09922l2.3978-4.9609c8.44e-4 -0.0019 0.001265-0.00283 0.002067-0.00465h9.6542a0.1045 0.1045 0 0 0 0.10335-0.10542 0.1045 0.1045 0 0 0-0.10335-0.10335h-9.7126c-0.005752-9.7e-4 -0.011886-0.00156-0.018087-0.00156zm-11.509 1.3022c-0.08268 0-0.57878 0.04958-0.66973 0.05788-0.04134 8e-3 -0.074414 0.03312-0.074414 0.09922s0.04961 0.06614 0.12402 0.06614c0.25631 0 0.26458 0.03305 0.26458 0.09095l-0.016536 0.10749-0.31419 1.2485c-0.09922-0.19844-0.24805-0.33899-0.48783-0.33899-0.61185 0-1.265 0.77721-1.265 1.5462 0 0.49609 0.28939 0.84336 0.69453 0.84336 0.10749 0 0.37207-0.02479 0.68626-0.39687 0.041339 0.22324 0.23151 0.39687 0.47956 0.39687 0.19017 0 0.30592-0.12402 0.39688-0.28938 0.08268-0.19017 0.1571-0.51263 0.1571-0.5209 0-0.0579-0.049606-0.05788-0.066146-0.05788-0.04961 0-0.057884 0.02482-0.074414 0.09922-0.09095 0.339-0.1819 0.65319-0.39688 0.65319-0.14883 0-0.1571-0.14056-0.1571-0.23978 0-0.13229 0.008295-0.16536 0.024805-0.25631l0.76068-3.051s4e-6 -0.05788-0.066146-0.05788zm15.595 0c-0.12402 0-0.50436 0.04128-0.64492 0.05788-0.04134 0-0.099219 0.00802-0.099219 0.09922 0 0.0661 0.04961 0.06614 0.12402 0.06614 0.25632 0 0.26458 0.03305 0.26458 0.09095l-0.016537 0.10749-0.76068 3.0344c-0.02481 0.0744-0.024805 0.0827-0.024805 0.11576 0 0.12402 0.10749 0.14882 0.1571 0.14882 0.08268 0 0.16536-0.0661 0.19017-0.14056l0.099219-0.39687 0.11576-0.47129c0.03307-0.12402 0.066151-0.23978 0.090951-0.35553 0.0083-0.0331 0.057877-0.20671 0.057877-0.23978 0.01654-0.0496 0.1819-0.339 0.3638-0.48783 0.11576-0.0827 0.27285-0.1819 0.50436-0.1819 0.22324 0 0.28112 0.1819 0.28112 0.37207 0 0.28112-0.19844 0.8599-0.32246 1.1824-0.04134 0.11576-0.074414 0.1819-0.074414 0.28939 0 0.24805 0.19017 0.42994 0.43822 0.42994 0.49609 0 0.68626-0.76894 0.68626-0.81028 0-0.0579-0.041337-0.05788-0.057877-0.05788-0.05788 0-0.057883 0.01652-0.082683 0.09922-0.07442 0.28112-0.24805 0.65319-0.53744 0.65319-0.090949 0-0.12402-0.0496-0.12402-0.17363 0-0.13229 0.041341-0.25632 0.090951-0.37207 0.082679-0.23151 0.32246-0.8599 0.32246-1.1658 0-0.339-0.2067-0.56224-0.60358-0.56224-0.33073 0-0.58704 0.16536-0.78548 0.40514l0.41341-1.6784s5e-6 -0.05788-0.066145-0.05788zm2.8226 0.05788c-0.10749 0-0.1571 0-0.1571 0.10749 0 0.0579 0.049609 0.05787 0.14883 0.05787 0.0083 0 0.10749 2.7e-4 0.19844 0.00827 0.099219 0.0165 0.14056 0.01655 0.14056 0.09095 0 0.0165 4e-6 0.03312-0.016536 0.09922l-0.71107 2.8277c-0.04961 0.20669-0.057879 0.24804-0.47956 0.24804-0.09095 0-0.14056 1e-5 -0.14056 0.10749 0 0.0579 0.066154 0.05788 0.074414 0.05788 0.14883 0 0.5209-0.01654 0.66146-0.01654 0.14883 0 0.52917 0.01654 0.67799 0.01654 0.04134 0 0.099219 0 0.099219-0.10749 0-0.0579-0.04134-0.05788-0.14883-0.05788-0.19017 0-0.339 5e-5 -0.339-0.09095 0-0.0331 0.008296-0.05795 0.016536-0.09095l0.34727-1.3973h0.62838c0.47956 0 0.57051 0.29766 0.57051 0.47956 0 0.0744-0.041344 0.23978-0.074414 0.3638-0.03307 0.14883-0.082682 0.33899-0.082682 0.44648 0 0.57051 0.63665 0.57051 0.7028 0.57051 0.44648 0 0.63665-0.52916 0.63665-0.60358 0-0.0661-0.057876-0.06614-0.066146-0.06614-0.04961 0-0.057876 0.03311-0.066146 0.07441-0.13229 0.38861-0.3638 0.47956-0.47956 0.47956-0.17363 0-0.21497-0.11576-0.21497-0.32246 0-0.16537 0.033067-0.42996 0.057877-0.60359 0.0083-0.0744 0.016537-0.17363 0.016537-0.24804 0-0.40514-0.35553-0.57051-0.49609-0.62012 0.53743-0.11575 1.1576-0.48782 1.1576-1.017 0-0.45475-0.47129-0.79375-1.1658-0.79375h-1.4966zm-5.6565 0.09095c-0.59531 0-0.98392 0.48782-0.98392 0.95911 0 0.28938 0.26458 0.28939 0.28112 0.28939 0.090949 0 0.27285-0.0579 0.27285-0.28112 0-0.13229-0.09922-0.27285-0.28112-0.27285-0.04134 0-0.049606 2.7e-4 -0.066146 0.00827 0.11576-0.34727 0.40514-0.53744 0.71107-0.53744 0.47956 0 0.7028 0.42995 0.7028 0.8599 0 0.42168-0.25632 0.83509-0.55397 1.1658l-1.0087 1.1245c-0.05788 0.0579-0.057877 0.0744-0.057877 0.19844h1.9596l0.14056-0.91778h-0.12402c-0.03307 0.15709-0.06615 0.3886-0.12402 0.47129-0.03307 0.0413-0.38034 0.04134-0.49609 0.04134h-0.95085l0.56224-0.5457c0.81855-0.7276 1.1327-1.0087 1.1327-1.5379 0-0.60358-0.47129-1.0253-1.1162-1.0253zm6.783 0.07493c0.031393-1.3e-4 0.062011 0 0.088883 0 0.37207 0 0.95912 0 0.95912 0.5209 0 0.1819-0.08268 0.54571-0.28939 0.75241-0.14056 0.13229-0.41341 0.30592-0.89297 0.30592h-0.58704l0.339-1.3813c0.03307-0.12402 0.04961-0.17363 0.14883-0.19017 0.037208-6e-3 0.1394-0.00738 0.23358-0.00775zm-20.71 1.2232c0.339 0 0.41341 0.42995 0.41341 0.46302 0 0.0331-0.008296 0.06615-0.016536 0.09095l-0.25632 1.0335c-0.03307 0.0992-0.03307 0.10749-0.10749 0.19844-0.23151 0.28939-0.44648 0.37207-0.59531 0.37207-0.26458 0-0.339-0.2894-0.339-0.49609 0-0.26459 0.16536-0.90952 0.28939-1.1576 0.16536-0.30593 0.39688-0.50436 0.61185-0.50436zm3.1915 0.28112c-0.07441 0-0.17363 0-0.17363 0.10749 0 0.0992 0.09922 0.09922 0.17363 0.09922h3.1502c0.08268 0 0.1819-2e-5 0.1819-0.09922 0-0.10749-0.09922-0.10749-0.17363-0.10749h-3.1585zm0 1.0253c-0.07441 0-0.17363 2e-5 -0.17363 0.09922 0 0.10749 0.09922 0.10749 0.17363 0.10749h3.1585c0.074409 0 0.17363 0 0.17363-0.10749 0-0.0992-0.09922-0.09922-0.1819-0.09922h-3.1502z" stroke-width=".35278"/>
 </g>
</svg>
