<svg width="112" height="48" version="1.1" viewBox="0 0 29.633 12.7" xmlns="http://www.w3.org/2000/svg">
 <g transform="translate(-15.22 -159.16)">
  <path id="a" d="m43.036 159.68c-0.45475 0-0.76894 0.32246-0.76894 0.66146 0 0.1819 0.1571 0.20671 0.19844 0.20671 0.08268 0 0.19017-0.0661 0.19017-0.19844 0-0.0661-0.024809-0.19844-0.21497-0.19844 0.11576-0.25631 0.3638-0.339 0.53744-0.339 0.37207 0 0.56224 0.28939 0.56224 0.58705 0 0.32246-0.23151 0.57051-0.34726 0.7028l-0.8847 0.8847c-0.04134 0.0331-0.041341 0.0413-0.041341 0.14056h1.5214l0.10749-0.66973h-0.12402c-0.0083 0.0827-0.049609 0.29766-0.099219 0.33073-0.0248 0.0248-0.30592 0.0248-0.3638 0.0248h-0.678c0.38861-0.33899 0.5209-0.44648 0.73587-0.62011 0.27285-0.21497 0.52917-0.44649 0.52917-0.79375 0-0.44649-0.38861-0.71934-0.8599-0.71934zm-15.149 0.39998c-0.05788 0-0.52917 0.3638-0.84336 1.0335-0.26458 0.57877-0.33073 1.1658-0.33073 1.604 0 0.41341 0.05788 1.0501 0.34726 1.6536 0.32246 0.64492 0.76894 0.99219 0.82682 0.99219 0.03307 0 0.04961-0.01648 0.04961-0.05788 0-0.0165-1e-6 -0.0248-0.090951-0.11576-0.65319-0.66145-0.82682-1.6619-0.82682-2.4722 0-0.91777 0.19844-1.8356 0.85163-2.4887 0.06614-0.0661 0.066146-0.07446 0.066146-0.09096 0-0.0413-0.01654-0.05787-0.04961-0.05787zm12.454 0c-0.03307 0-0.057878 0.02477-0.057878 0.05787 0 0.0165-1e-6 0.0248 0.099219 0.12403 0.5209 0.5209 0.81856 1.356 0.81856 2.4557 0 0.90951-0.19017 1.8356-0.84336 2.497-0.07441 0.0662-0.074414 0.07435-0.074414 0.09095 0 0.0331 0.024798 0.05788 0.057878 0.05788 0.04961 0 0.52917-0.3638 0.83509-1.0335 0.27285-0.57878 0.33073-1.1658 0.33073-1.6123 0-0.40514-0.05788-1.0418-0.34727-1.6454-0.31419-0.64491-0.76894-0.99218-0.81855-0.99218zm-9.4444 0.29765c-0.08268 0-0.57878 0.04958-0.66973 0.05788-0.04134 8e-3 -0.074414 0.03312-0.074414 0.09922s0.04961 0.06615 0.12402 0.06615c0.25632 0 0.26458 0.03305 0.26458 0.09095l-0.016536 0.10748-0.31419 1.2485c-0.09922-0.19844-0.24805-0.339-0.48783-0.339-0.61185 0-1.265 0.77721-1.265 1.5462 0 0.49609 0.28939 0.84336 0.69453 0.84336 0.10749 0 0.37207-0.0248 0.68626-0.39688 0.04134 0.22324 0.23151 0.39688 0.47956 0.39688 0.19017 0 0.30592-0.12403 0.39688-0.28939 0.08268-0.19017 0.1571-0.51263 0.1571-0.5209 0-0.0579-0.049606-0.05788-0.066146-0.05788-0.049609 0-0.057884 0.02482-0.074414 0.09922-0.09095 0.339-0.1819 0.65319-0.39688 0.65319-0.14883 0-0.1571-0.14056-0.1571-0.23978 0-0.13229 0.008295-0.16536 0.024805-0.25631l0.76068-3.051s4e-6 -0.05788-0.066146-0.05788zm8.1623 1.3312c-0.7028 0-1.4139 0.75241-1.4139 1.4966 0 0.5209 0.35553 0.89297 0.84336 0.89297 0.7028 0 1.4139-0.72761 1.4139-1.4966 0-0.55397-0.3638-0.89297-0.84336-0.89297zm-9.3281 0.11575c0.339 0 0.41341 0.42995 0.41341 0.46302 0 0.0331-0.008296 0.06615-0.016536 0.09095l-0.25632 1.0335c-0.03307 0.0992-0.03307 0.10749-0.10749 0.19844-0.23151 0.28939-0.44648 0.37207-0.59531 0.37207-0.26458 0-0.339-0.28939-0.339-0.49609 0-0.26459 0.16536-0.90951 0.28939-1.1576 0.16536-0.30593 0.39688-0.50437 0.61185-0.50437zm9.3136 0c0.004952-1.7e-4 0.009819 0 0.014469 0 0.30592 0 0.46302 0.25632 0.46302 0.57051 0 0.20671-0.10749 0.76068-0.30592 1.0997-0.19017 0.30592-0.47956 0.48782-0.71934 0.48782-0.23151 0-0.46302-0.16537-0.46302-0.57877 0-0.25632 0.14056-0.82683 0.30592-1.0914 0.25631-0.39248 0.55136-0.48259 0.70487-0.48783zm-6.2999 0.79375c-0.078338 0.00136-0.14779 0.01242-0.14779 0.09922 0 0.10749 0.090949 0.10749 0.1819 0.10749h2.8525c0.09095 0 0.19017 0 0.19017-0.10749 0-0.0992-0.099219-0.09922-0.19017-0.09922h-2.8525c-0.011369 0-0.022916-1.9e-4 -0.034107 0zm-11.576 2.4422c-0.49609 0-0.8847 0.37207-0.8847 0.8599 0 0.11576 0.041344 0.15709 0.074414 0.15709 0.04961 0 0.074414-0.09919 0.074414-0.12402 0.02481-0.43821 0.45475-0.59531 0.73587-0.59531 0.30592 0 0.57051 0.15709 0.84336 0.34726 0.28112 0.19017 0.57051 0.38034 0.9095 0.38034 0.48782 0 0.8847-0.38033 0.8847-0.85989 0-0.11576-0.041344-0.16537-0.074414-0.16537-0.02481 0-0.074414 0.0248-0.074414 0.14883-0.02481 0.3638-0.38861 0.57878-0.73587 0.57878-0.30592 0-0.57051-0.16537-0.84336-0.34727-0.28112-0.19017-0.57051-0.38034-0.90951-0.38034zm-4.4855 0.21498c-0.5457 0-0.85163 0.67799-0.85163 0.81028 0 0.0579 0.057876 0.05788 0.066146 0.05788 0.04134 0 0.057876-0.01648 0.066146-0.05788 0.1819-0.56224 0.52917-0.69453 0.71107-0.69453 0.09922 0 0.28112 0.0496 0.28112 0.35553 0 0.16536-0.09095 0.51264-0.28112 1.2568-0.08268 0.32246-0.27285 0.5457-0.50436 0.5457-0.03307 0-0.14883-5e-5 -0.26458-0.06615 0.13229-0.0331 0.24805-0.14056 0.24805-0.28939 0-0.14055-0.11576-0.1819-0.19017-0.1819-0.16536 0-0.28939 0.1323-0.28939 0.30593 0 0.23978 0.25632 0.34726 0.48783 0.34726 0.35553 0 0.5457-0.37206 0.55397-0.39687 0.06615 0.19017 0.25632 0.39687 0.57051 0.39687 0.5457 0 0.84336-0.67799 0.84336-0.81028 0-0.0579-0.041337-0.05788-0.057877-0.05788-0.04961 0-0.057885 0.02478-0.074415 0.05788-0.17363 0.57051-0.52917 0.69453-0.69453 0.69453-0.20671 0-0.28939-0.16537-0.28939-0.34727 0-0.11576 0.024813-0.23151 0.082682-0.46302l0.1819-0.7276c0.03307-0.13229 0.1571-0.62012 0.5209-0.62012 0.0248 0 0.1571 5e-5 0.26458 0.06615-0.14883 0.0331-0.24805 0.15709-0.24805 0.28938 0 0.0827 0.05788 0.18191 0.19844 0.18191 0.11576 0 0.28112-0.091 0.28112-0.30593 0-0.27285-0.30592-0.34726-0.48783-0.34726-0.30592 0-0.48782 0.28112-0.55397 0.39687-0.13229-0.34726-0.41341-0.39687-0.57051-0.39687zm9.5085 0.90847a0.105 0.105 0 0 0-0.10542 0.10335 0.105 0.105 0 0 0 0.10542 0.10594h18.209a0.105 0.105 0 0 0 0.10335-0.10594 0.105 0.105 0 0 0-0.10335-0.10335h-18.209zm-5.0462 0.10025c-0.48497 0.01163-0.86145 0.38783-0.86145 0.8599 0 0.12402 0.041344 0.16536 0.074414 0.16536 0.04961 0 0.074414-0.0992 0.074414-0.12402 0.02481-0.44648 0.45475-0.60358 0.73587-0.60358 0.30592 0 0.57051 0.16536 0.84336 0.34726 0.28112 0.19017 0.57051 0.38034 0.9095 0.38034 0.50436 0 0.8847-0.38861 0.8847-0.85163 0-0.1571-0.066154-0.16536-0.074414-0.16536-0.02481 0-0.074414 0.0248-0.074414 0.14056-0.02481 0.3638-0.38861 0.58704-0.73587 0.58704-0.30592 0-0.57051-0.16536-0.84336-0.35553-0.28112-0.19017-0.57051-0.38034-0.90951-0.38034-0.007751 0-0.015556-1.8e-4 -0.023254 0zm12.214 1.4252c-0.33073 0.339-0.79375 0.33899-0.95912 0.33899v0.16537c0.10749 0 0.41341 0 0.68626-0.14056v2.7368c0 0.19017-0.01654 0.24805-0.48782 0.24805h-0.16536v0.16536c0.1819-0.0165 0.63665-0.01653 0.85163-0.01653 0.2067 0 0.66972 3e-5 0.85163 0.01653v-0.16536h-0.16536c-0.47956 0-0.48783-0.0579-0.48783-0.24805v-2.96c0-0.13229 0-0.14056-0.12402-0.14056zm4.7749 0c-0.005814 7.7e-4 -0.019641 0.00416-0.03824 0.01653-0.10749 0.0496-0.3638 0.1571-0.71934 0.1571-0.20671 0-0.45475-0.04131-0.7028-0.14883-0.04134-0.0165-0.049608-0.01654-0.057878-0.01654-0.057879 0-0.057877 0.04131-0.057877 0.12403v1.5627c0 0.091 4e-6 0.13229 0.074414 0.13229 0.04134 0 0.049614-0.00804 0.074414-0.04134 0.05788-0.0827 0.24805-0.37207 0.678-0.37207 0.27285 0 0.40514 0.23978 0.44648 0.339 0.08268 0.19843 0.099219 0.39688 0.099219 0.66146 0 0.19017 0 0.50436-0.13229 0.7276-0.12402 0.20671-0.32246 0.339-0.56224 0.339-0.38034 0-0.68626-0.28111-0.77721-0.58704 0.01654 0 0.033071 0.00775 0.090951 0.00775 0.17363 0 0.26458-0.1323 0.26458-0.25632 0-0.1323-0.090951-0.26458-0.26458-0.26458-0.07441 0-0.25632 0.0413-0.25632 0.28112 0 0.45475 0.3638 0.96738 0.95085 0.96738 0.61169 0 1.149-0.50411 1.1493-1.1736v-5.2e-4c-2.36e-4 -0.62816-0.4301-1.157-1.0005-1.157-0.24805 0-0.47956 0.0827-0.66973 0.27285v-1.0335c0.10749 0.0331 0.28112 0.06615 0.44648 0.06615 0.65319 0 1.0253-0.47957 1.0253-0.54571 0-0.0331-0.016537-0.05787-0.057877-0.05787 0 0-0.001163-2.6e-4 -0.003101 0zm-2.8412 2.9518c-0.1536 0.00405-0.27388 0.13462-0.27388 0.28112 0 0.1571 0.12402 0.28112 0.28112 0.28112 0.14883 0 0.27285-0.12402 0.27285-0.28112 0-0.14883-0.12402-0.28112-0.27285-0.28112-0.002455 0-0.004797-6e-5 -0.007235 0z" stroke-width=".35278"/>
 </g>
</svg>
