<?xml version="1.0" encoding="UTF-8"?>
<svg width="127.05" height="27.253" version="1.1" viewBox="0 0 12.705 2.7253" xmlns="http://www.w3.org/2000/svg" xmlns:ns48="http://www.iki.fi/pav/software/textext/"><g transform="translate(-85.498 -137.66)"><g transform="matrix(.35278 0 0 .35278 85.46 137.66)" ns48:alignment="middle center" ns48:jacobian_sqrt="0.352778" ns48:pdfconverter="inkscape" ns48:preamble="/usr/share/inkscape/extensions/textext/default_packages.tex" ns48:scale="1.0" ns48:texconverter="pdflatex" ns48:text="$R'=Rk$\n\n$d=\\sqrt{2hR'}$\n\n$x=\\sqrt{(o-d)^2+R'^2}-R'$\n\n$d\\approx\\sqrt{1.5kh}$\n\n$x\\approx\\frac{(d-o)^2}{1.5k}$" ns48:version="1.12.0"><defs></defs><g transform="translate(-149.01 -127.26)"><g transform="translate(148.71 134.76)"><path d="m3.7344-6.125c0.0625-0.23438 0.09375-0.32812 0.28125-0.35938 0.09375-0.015625 0.40625-0.015625 0.60938-0.015625 0.70312 0 1.8125 0 1.8125 0.98438 0 0.34375-0.15625 1.0312-0.54688 1.4219-0.26562 0.25-0.78125 0.57812-1.6875 0.57812h-1.1094zm1.4375 2.7344c1.0156-0.21875 2.1875-0.92188 2.1875-1.9219 0-0.85938-0.89062-1.5-2.2031-1.5h-2.8281c-0.20312 0-0.29688 0-0.29688 0.20312 0 0.10938 0.09375 0.10938 0.28125 0.10938 0.015625 0 0.20312 0 0.375 0.015625 0.1875 0.03125 0.26562 0.03125 0.26562 0.17188 0 0.03125 0 0.0625-0.03125 0.1875l-1.3438 5.3438c-0.09375 0.39062-0.10938 0.46875-0.90625 0.46875-0.17188 0-0.26562 0-0.26562 0.20312 0 0.10938 0.125 0.10938 0.14062 0.10938 0.28125 0 0.98438-0.03125 1.25-0.03125 0.28125 0 1 0.03125 1.2812 0.03125 0.078125 0 0.1875 0 0.1875-0.20312 0-0.10938-0.078125-0.10938-0.28125-0.10938-0.35938 0-0.64062 0-0.64062-0.17188 0-0.0625 0.015625-0.10938 0.03125-0.17188l0.65625-2.6406h1.1875c0.90625 0 1.0781 0.5625 1.0781 0.90625 0 0.14062-0.078125 0.45312-0.14062 0.6875-0.0625 0.28125-0.15625 0.64062-0.15625 0.84375 0 1.0781 1.2031 1.0781 1.3281 1.0781 0.84375 0 1.2031-1 1.2031-1.1406 0-0.125-0.10938-0.125-0.125-0.125-0.09375 0-0.10938 0.0625-0.125 0.14062-0.25 0.73438-0.6875 0.90625-0.90625 0.90625-0.32812 0-0.40625-0.21875-0.40625-0.60938 0-0.3125 0.0625-0.8125 0.10938-1.1406 0.015625-0.14062 0.03125-0.32812 0.03125-0.46875 0-0.76562-0.67188-1.0781-0.9375-1.1719z"/></g><g transform="translate(156.35 131.15)"><path d="m2.0156-3.2969c0.0625-0.10938 0.0625-0.17188 0.0625-0.21875 0-0.21875-0.1875-0.375-0.40625-0.375-0.26562 0-0.34375 0.21875-0.375 0.32812l-0.92188 3.0156c-0.015625 0.015625-0.046875 0.09375-0.046875 0.10938 0 0.078125 0.21875 0.15625 0.28125 0.15625 0.046875 0 0.046875-0.015625 0.09375-0.125z"/></g><g transform="translate(161.92 134.76)"><path d="m6.8438-3.2656c0.15625 0 0.34375 0 0.34375-0.1875 0-0.20312-0.1875-0.20312-0.32812-0.20312h-5.9688c-0.14062 0-0.32812 0-0.32812 0.20312 0 0.1875 0.1875 0.1875 0.32812 0.1875zm0.015625 1.9375c0.14062 0 0.32812 0 0.32812-0.20312 0-0.1875-0.1875-0.1875-0.34375-0.1875h-5.9531c-0.14062 0-0.32812 0-0.32812 0.1875 0 0.20312 0.1875 0.20312 0.32812 0.20312z"/></g><g transform="translate(172.44 134.76)"><path d="m3.7344-6.125c0.0625-0.23438 0.09375-0.32812 0.28125-0.35938 0.09375-0.015625 0.40625-0.015625 0.60938-0.015625 0.70312 0 1.8125 0 1.8125 0.98438 0 0.34375-0.15625 1.0312-0.54688 1.4219-0.26562 0.25-0.78125 0.57812-1.6875 0.57812h-1.1094zm1.4375 2.7344c1.0156-0.21875 2.1875-0.92188 2.1875-1.9219 0-0.85938-0.89062-1.5-2.2031-1.5h-2.8281c-0.20312 0-0.29688 0-0.29688 0.20312 0 0.10938 0.09375 0.10938 0.28125 0.10938 0.015625 0 0.20312 0 0.375 0.015625 0.1875 0.03125 0.26562 0.03125 0.26562 0.17188 0 0.03125 0 0.0625-0.03125 0.1875l-1.3438 5.3438c-0.09375 0.39062-0.10938 0.46875-0.90625 0.46875-0.17188 0-0.26562 0-0.26562 0.20312 0 0.10938 0.125 0.10938 0.14062 0.10938 0.28125 0 0.98438-0.03125 1.25-0.03125 0.28125 0 1 0.03125 1.2812 0.03125 0.078125 0 0.1875 0 0.1875-0.20312 0-0.10938-0.078125-0.10938-0.28125-0.10938-0.35938 0-0.64062 0-0.64062-0.17188 0-0.0625 0.015625-0.10938 0.03125-0.17188l0.65625-2.6406h1.1875c0.90625 0 1.0781 0.5625 1.0781 0.90625 0 0.14062-0.078125 0.45312-0.14062 0.6875-0.0625 0.28125-0.15625 0.64062-0.15625 0.84375 0 1.0781 1.2031 1.0781 1.3281 1.0781 0.84375 0 1.2031-1 1.2031-1.1406 0-0.125-0.10938-0.125-0.125-0.125-0.09375 0-0.10938 0.0625-0.125 0.14062-0.25 0.73438-0.6875 0.90625-0.90625 0.90625-0.32812 0-0.40625-0.21875-0.40625-0.60938 0-0.3125 0.0625-0.8125 0.10938-1.1406 0.015625-0.14062 0.03125-0.32812 0.03125-0.46875 0-0.76562-0.67188-1.0781-0.9375-1.1719z"/></g><g transform="translate(180.07 134.76)"><path d="m2.8594-6.8125s0-0.10938-0.125-0.10938c-0.23438 0-0.95312 0.078125-1.2188 0.10938-0.078125 0-0.1875 0.015625-0.1875 0.1875 0 0.125 0.09375 0.125 0.23438 0.125 0.48438 0 0.5 0.0625 0.5 0.17188l-0.03125 0.20312-1.4375 5.7344c-0.046875 0.14062-0.046875 0.15625-0.046875 0.21875 0 0.23438 0.20312 0.28125 0.29688 0.28125 0.125 0 0.26562-0.09375 0.32812-0.20312 0.046875-0.09375 0.5-1.9375 0.5625-2.1875 0.34375 0.03125 1.1562 0.1875 1.1562 0.84375 0 0.078125 0 0.10938-0.03125 0.21875-0.015625 0.10938-0.03125 0.23438-0.03125 0.34375 0 0.57812 0.39062 0.98438 0.90625 0.98438 0.29688 0 0.57812-0.15625 0.79688-0.53125 0.25-0.4375 0.35938-0.98438 0.35938-1 0-0.10938-0.09375-0.10938-0.125-0.10938-0.09375 0-0.10938 0.046875-0.14062 0.1875-0.20312 0.71875-0.42188 1.2344-0.85938 1.2344-0.20312 0-0.32812-0.10938-0.32812-0.46875 0-0.17188 0.046875-0.40625 0.078125-0.5625 0.046875-0.17188 0.046875-0.20312 0.046875-0.3125 0-0.64062-0.625-0.92188-1.4844-1.0469 0.3125-0.17188 0.64062-0.48438 0.85938-0.73438 0.48438-0.53125 0.9375-0.95312 1.4219-0.95312 0.0625 0 0.078125 0 0.09375 0.015625 0.125 0.015625 0.125 0.015625 0.21875 0.078125 0.015625 0 0.015625 0.015625 0.03125 0.03125-0.46875 0.03125-0.5625 0.42188-0.5625 0.54688 0 0.15625 0.10938 0.34375 0.375 0.34375s0.54688-0.21875 0.54688-0.60938c0-0.29688-0.23438-0.625-0.67188-0.625-0.28125 0-0.73438 0.078125-1.4531 0.875-0.34375 0.375-0.73438 0.78125-1.1094 0.92188z"/></g></g></g></g></svg>
