<?xml version="1.0" encoding="UTF-8"?>
<svg width="156.27" height="51.954" version="1.1" viewBox="0 0 15.627 5.1954" xmlns="http://www.w3.org/2000/svg" xmlns:ns48="http://www.iki.fi/pav/software/textext/"><g transform="translate(-85.459 -154.14)"><g transform="matrix(.35278 0 0 .35278 85.46 137.66)" ns48:alignment="middle center" ns48:jacobian_sqrt="0.352778" ns48:pdfconverter="inkscape" ns48:preamble="/usr/share/inkscape/extensions/textext/default_packages.tex" ns48:scale="1.0" ns48:texconverter="pdflatex" ns48:text="$R'=Rk$\n\n$d=\\sqrt{2hR'}$\n\n$x=\\sqrt{(o-d)^2+R'^2}-R'$\n\n$d\\approx\\sqrt{1.5kh}$\n\n$x\\approx\\frac{(d-o)^2}{1.5k}$" ns48:version="1.12.0"><defs></defs><g><g transform="translate(-149.01 -127.26)"><g transform="translate(148.71 185.12)"><path d="m3.3281-3.0156c0.0625-0.25 0.29688-1.1719 0.98438-1.1719 0.046875 0 0.29688 0 0.5 0.125-0.28125 0.0625-0.46875 0.29688-0.46875 0.54688 0 0.15625 0.10938 0.34375 0.375 0.34375 0.21875 0 0.53125-0.17188 0.53125-0.57812 0-0.51562-0.57812-0.65625-0.92188-0.65625-0.57812 0-0.92188 0.53125-1.0469 0.75-0.25-0.65625-0.78125-0.75-1.0781-0.75-1.0312 0-1.6094 1.2812-1.6094 1.5312 0 0.10938 0.10938 0.10938 0.125 0.10938 0.078125 0 0.10938-0.03125 0.125-0.10938 0.34375-1.0625 1-1.3125 1.3438-1.3125 0.1875 0 0.53125 0.09375 0.53125 0.67188 0 0.3125-0.17188 0.96875-0.53125 2.375-0.15625 0.60938-0.51562 1.0312-0.95312 1.0312-0.0625 0-0.28125 0-0.5-0.125 0.25-0.0625 0.46875-0.26562 0.46875-0.54688 0-0.26562-0.21875-0.34375-0.35938-0.34375-0.3125 0-0.54688 0.25-0.54688 0.57812 0 0.45312 0.48438 0.65625 0.92188 0.65625 0.67188 0 1.0312-0.70312 1.0469-0.75 0.125 0.35938 0.48438 0.75 1.0781 0.75 1.0312 0 1.5938-1.2812 1.5938-1.5312 0-0.10938-0.078125-0.10938-0.10938-0.10938-0.09375 0-0.10938 0.046875-0.14062 0.10938-0.32812 1.0781-1 1.3125-1.3125 1.3125-0.39062 0-0.54688-0.3125-0.54688-0.65625 0-0.21875 0.046875-0.4375 0.15625-0.875z"/></g><g transform="translate(157.18 185.12)"><path d="m7.2031-4.5c0-0.21875-0.078125-0.3125-0.14062-0.3125-0.046875 0-0.14062 0.046875-0.14062 0.28125-0.046875 0.6875-0.73438 1.0938-1.3906 1.0938-0.57812 0-1.0781-0.3125-1.5938-0.65625-0.53125-0.35938-1.0781-0.71875-1.7188-0.71875-0.9375 0-1.6719 0.70312-1.6719 1.625 0 0.21875 0.078125 0.29688 0.14062 0.29688 0.09375 0 0.14062-0.1875 0.14062-0.23438 0.046875-0.82812 0.85938-1.125 1.3906-1.125 0.57812 0 1.0781 0.29688 1.5938 0.65625 0.53125 0.35938 1.0781 0.71875 1.7188 0.71875 0.92188 0 1.6719-0.71875 1.6719-1.625zm0 2.3281c0-0.29688-0.125-0.3125-0.14062-0.3125-0.046875 0-0.14062 0.046875-0.14062 0.26562-0.046875 0.6875-0.73438 1.1094-1.3906 1.1094-0.57812 0-1.0781-0.3125-1.5938-0.67188-0.53125-0.35938-1.0781-0.71875-1.7188-0.71875-0.9375 0-1.6719 0.71875-1.6719 1.625 0 0.23438 0.078125 0.3125 0.14062 0.3125 0.09375 0 0.14062-0.1875 0.14062-0.23438 0.046875-0.84375 0.85938-1.1406 1.3906-1.1406 0.57812 0 1.0781 0.3125 1.5938 0.65625 0.53125 0.35938 1.0781 0.71875 1.7188 0.71875 0.95312 0 1.6719-0.73438 1.6719-1.6094z"/></g><g transform="translate(168.88 180.28)"><path d="m2.4688-5.2188c-1.3125 0.92188-1.6719 2.4062-1.6719 3.4688 0 0.98438 0.29688 2.5156 1.6719 3.4844 0.0625 0 0.14062 0 0.14062-0.078125 0-0.046875-0.015625-0.0625-0.0625-0.10938-0.9375-0.84375-1.2656-2.0156-1.2656-3.2812 0-1.8906 0.71875-2.8125 1.2812-3.3281 0.03125-0.03125 0.046875-0.046875 0.046875-0.078125 0-0.078125-0.078125-0.078125-0.14062-0.078125z"/></g><g transform="translate(172 180.28)"><path d="m3.9844-4.625c0-0.015625 0.015625-0.10938 0.015625-0.10938 0-0.046875-0.015625-0.10938-0.10938-0.10938-0.14062 0-0.71875 0.0625-0.89062 0.078125-0.046875 0-0.15625 0.015625-0.15625 0.15625 0 0.09375 0.10938 0.09375 0.1875 0.09375 0.32812 0 0.32812 0.0625 0.32812 0.10938s0 0.09375-0.015625 0.15625l-0.40625 1.5938c-0.14062-0.23438-0.375-0.42188-0.71875-0.42188-0.89062 0-1.7969 0.98438-1.7969 1.9844 0 0.6875 0.45312 1.1562 1.0625 1.1562 0.375 0 0.70312-0.20312 0.98438-0.48438 0.125 0.42188 0.53125 0.48438 0.71875 0.48438 0.25 0 0.42188-0.14062 0.54688-0.35938 0.15625-0.28125 0.25-0.67188 0.25-0.70312 0-0.09375-0.09375-0.09375-0.10938-0.09375-0.10938 0-0.10938 0.03125-0.15625 0.21875-0.09375 0.34375-0.21875 0.75-0.51562 0.75-0.17188 0-0.23438-0.15625-0.23438-0.34375 0-0.125 0.015625-0.1875 0.046875-0.28125zm-1.4844 3.75c-0.046875 0.20312-0.20312 0.34375-0.35938 0.46875-0.0625 0.0625-0.34375 0.28125-0.64062 0.28125-0.26562 0-0.51562-0.1875-0.51562-0.67188 0-0.375 0.20312-1.1406 0.375-1.4219 0.3125-0.5625 0.67188-0.65625 0.85938-0.65625 0.48438 0 0.625 0.53125 0.625 0.60938 0 0.015625-0.015625 0.078125-0.015625 0.09375z"/></g><g transform="translate(176.14 180.28)"><path d="m5.1875-1.5781c0.10938 0 0.28125 0 0.28125-0.15625 0-0.1875-0.17188-0.1875-0.28125-0.1875h-4.1562c-0.10938 0-0.28125 0-0.28125 0.17188s0.15625 0.17188 0.28125 0.17188z"/></g><g transform="translate(182.37 180.28)"><path d="m3.7031-1.8594c0-0.76562-0.57812-1.2188-1.2656-1.2188-1.0312 0-2 0.96875-2 1.9219 0 0.70312 0.5 1.2188 1.2656 1.2188 1 0 2-0.90625 2-1.9219zm-2 1.7344c-0.34375 0-0.6875-0.21875-0.6875-0.78125 0-0.28125 0.125-0.96875 0.40625-1.3594 0.29688-0.4375 0.70312-0.60938 1.0156-0.60938 0.375 0 0.6875 0.25 0.6875 0.76562 0 0.17188-0.078125 0.85938-0.39062 1.3438-0.26562 0.42188-0.67188 0.64062-1.0312 0.64062z"/></g><g transform="translate(186.3 180.28)"><path d="m0.625-5.2188c-0.046875 0-0.125 0-0.125 0.078125 0 0.03125 0.015625 0.046875 0.0625 0.10938 0.59375 0.54688 1.2656 1.4844 1.2656 3.2812 0 1.4531-0.45312 2.5625-1.2031 3.2344-0.125 0.125-0.125 0.125-0.125 0.17188 0 0.03125 0.015625 0.078125 0.078125 0.078125 0.09375 0 0.75-0.45312 1.2188-1.3281 0.29688-0.57812 0.5-1.3281 0.5-2.1406 0-0.98438-0.29688-2.5156-1.6719-3.4844z"/></g><g transform="translate(189.42 177.28)"><path d="m2.9375-0.96875h-0.21875c0 0.09375-0.0625 0.40625-0.14062 0.45312-0.03125 0.03125-0.45312 0.03125-0.53125 0.03125h-0.96875c0.32812-0.23438 0.6875-0.51562 0.98438-0.71875 0.45312-0.3125 0.875-0.59375 0.875-1.125 0-0.64062-0.60938-0.98438-1.3125-0.98438-0.67188 0-1.1719 0.375-1.1719 0.875 0 0.25 0.21875 0.29688 0.29688 0.29688 0.125 0 0.28125-0.09375 0.28125-0.29688 0-0.17188-0.125-0.28125-0.28125-0.28125 0.14062-0.23438 0.4375-0.375 0.76562-0.375 0.48438 0 0.89062 0.28125 0.89062 0.76562 0 0.42188-0.29688 0.75-0.67188 1.0625l-1.2188 1.0312c-0.046875 0.046875-0.0625 0.046875-0.0625 0.078125v0.15625h2.3125z"/></g></g><path d="m19.878 55.168h24.418v0.398h-24.418z"/><g transform="translate(-149.01 -127.26)"><g transform="translate(173.74 188.55)"><path d="m2.3281-4.4375c0-0.1875 0-0.1875-0.20312-0.1875-0.45312 0.4375-1.0781 0.4375-1.3594 0.4375v0.25c0.15625 0 0.625 0 1-0.1875v3.5469c0 0.23438 0 0.32812-0.6875 0.32812h-0.26562v0.25c0.125 0 0.98438-0.03125 1.2344-0.03125 0.21875 0 1.0938 0.03125 1.25 0.03125v-0.25h-0.26562c-0.70312 0-0.70312-0.09375-0.70312-0.32812z"/></g><g transform="translate(177.71 188.55)"><path d="m1.5781-0.39062c0-0.25-0.20312-0.40625-0.39062-0.40625-0.23438 0-0.40625 0.1875-0.40625 0.39062 0 0.25 0.20312 0.40625 0.39062 0.40625 0.23438 0 0.40625-0.1875 0.40625-0.39062z"/></g><g transform="translate(180.08 188.55)"><path d="m1.0781-3.8906c0.35938 0.09375 0.5625 0.09375 0.67188 0.09375 0.92188 0 1.4688-0.625 1.4688-0.73438 0-0.078125-0.046875-0.09375-0.078125-0.09375-0.015625 0-0.03125 0-0.0625 0.015625-0.17188 0.0625-0.53125 0.20312-1.0469 0.20312-0.20312 0-0.5625-0.015625-1.0156-0.1875-0.078125-0.03125-0.09375-0.03125-0.09375-0.03125-0.09375 0-0.09375 0.078125-0.09375 0.1875v2.0469c0 0.125 0 0.20312 0.10938 0.20312 0.0625 0 0.078125 0 0.14062-0.09375 0.29688-0.375 0.73438-0.4375 0.96875-0.4375 0.42188 0 0.60938 0.32812 0.64062 0.39062 0.125 0.23438 0.17188 0.5 0.17188 0.90625 0 0.20312 0 0.60938-0.21875 0.92188-0.17188 0.25-0.46875 0.42188-0.8125 0.42188-0.45312 0-0.92188-0.25-1.0938-0.71875 0.26562 0.015625 0.40625-0.15625 0.40625-0.34375 0-0.29688-0.26562-0.34375-0.35938-0.34375 0 0-0.34375 0-0.34375 0.375 0 0.625 0.57812 1.25 1.4062 1.25 0.89062 0 1.6719-0.65625 1.6719-1.5469 0-0.78125-0.59375-1.5-1.4531-1.5-0.3125 0-0.67188 0.0625-0.98438 0.32812z"/></g><g transform="translate(184.05 188.55)"><path d="m2.1875-4.625c0-0.015625 0.015625-0.10938 0.015625-0.10938 0-0.046875-0.015625-0.10938-0.10938-0.10938-0.14062 0-0.71875 0.0625-0.89062 0.078125-0.046875 0-0.15625 0.015625-0.15625 0.15625 0 0.09375 0.10938 0.09375 0.1875 0.09375 0.32812 0 0.32812 0.0625 0.32812 0.10938s-0.015625 0.09375-0.015625 0.15625l-0.98438 3.9375c-0.046875 0.125-0.046875 0.14062-0.046875 0.15625 0 0.10938 0.09375 0.21875 0.25 0.21875 0.1875 0 0.26562-0.125 0.3125-0.28125 0.015625-0.03125 0.3125-1.2656 0.34375-1.3594 0.5 0.046875 0.89062 0.21875 0.89062 0.57812 0 0.03125 0 0.0625-0.015625 0.14062-0.03125 0.09375-0.03125 0.14062-0.03125 0.21875 0 0.48438 0.40625 0.70312 0.75 0.70312 0.67188 0 0.875-1.0469 0.875-1.0625 0-0.09375-0.078125-0.09375-0.10938-0.09375-0.09375 0-0.10938 0.046875-0.14062 0.17188-0.078125 0.29688-0.26562 0.79688-0.60938 0.79688-0.1875 0-0.25-0.17188-0.25-0.35938 0-0.125 0-0.14062 0.046875-0.3125 0.015625-0.03125 0.03125-0.14062 0.03125-0.21875 0-0.625-0.82812-0.71875-1.125-0.73438 0.20312-0.125 0.45312-0.35938 0.57812-0.46875 0.35938-0.32812 0.70312-0.65625 1.0938-0.65625 0.078125 0 0.17188 0.015625 0.23438 0.09375-0.29688 0.046875-0.35938 0.28125-0.35938 0.39062 0 0.14062 0.10938 0.25 0.26562 0.25 0.20312 0 0.40625-0.15625 0.40625-0.4375 0-0.23438-0.17188-0.5-0.53125-0.5-0.40625 0-0.76562 0.29688-1.125 0.625-0.29688 0.26562-0.51562 0.48438-0.8125 0.60938z"/></g></g></g></g></g></svg>
