<?xml version="1.0" encoding="UTF-8"?>
<svg width="167.65" height="35.168" version="1.1" viewBox="0 0 16.765 3.5168" xmlns="http://www.w3.org/2000/svg" xmlns:ns48="http://www.iki.fi/pav/software/textext/"><g transform="translate(-85.498 -141.39)"><g transform="matrix(.35278 0 0 .35278 85.46 137.66)" ns48:alignment="middle center" ns48:jacobian_sqrt="0.352778" ns48:pdfconverter="inkscape" ns48:preamble="/usr/share/inkscape/extensions/textext/default_packages.tex" ns48:scale="1.0" ns48:texconverter="pdflatex" ns48:text="$R'=Rk$\n\n$d=\\sqrt{2hR'}$\n\n$x=\\sqrt{(o-d)^2+R'^2}-R'$\n\n$d\\approx\\sqrt{1.5kh}$\n\n$x\\approx\\frac{(d-o)^2}{1.5k}$" ns48:version="1.12.0"><defs></defs><g><g transform="translate(-149.01 -127.26)"><g transform="translate(148.71 146.72)"><path d="m5.1406-6.8125s0-0.10938-0.125-0.10938c-0.15625 0-1.0938 0.09375-1.2656 0.10938-0.078125 0.015625-0.14062 0.0625-0.14062 0.1875s0.09375 0.125 0.23438 0.125c0.48438 0 0.5 0.0625 0.5 0.17188l-0.03125 0.20312-0.59375 2.3594c-0.1875-0.375-0.46875-0.64062-0.92188-0.64062-1.1562 0-2.3906 1.4688-2.3906 2.9219 0 0.9375 0.54688 1.5938 1.3125 1.5938 0.20312 0 0.70312-0.046875 1.2969-0.75 0.078125 0.42188 0.4375 0.75 0.90625 0.75 0.35938 0 0.57812-0.23438 0.75-0.54688 0.15625-0.35938 0.29688-0.96875 0.29688-0.98438 0-0.10938-0.09375-0.10938-0.125-0.10938-0.09375 0-0.10938 0.046875-0.14062 0.1875-0.17188 0.64062-0.34375 1.2344-0.75 1.2344-0.28125 0-0.29688-0.26562-0.29688-0.45312 0-0.25 0.015625-0.3125 0.046875-0.48438zm-2.0625 5.625c-0.0625 0.1875-0.0625 0.20312-0.20312 0.375-0.4375 0.54688-0.84375 0.70312-1.125 0.70312-0.5 0-0.64062-0.54688-0.64062-0.9375 0-0.5 0.3125-1.7188 0.54688-2.1875 0.3125-0.57812 0.75-0.95312 1.1562-0.95312 0.64062 0 0.78125 0.8125 0.78125 0.875s-0.015625 0.125-0.03125 0.17188z"/></g><g transform="translate(156.67 146.72)"><path d="m6.8438-3.2656c0.15625 0 0.34375 0 0.34375-0.1875 0-0.20312-0.1875-0.20312-0.32812-0.20312h-5.9688c-0.14062 0-0.32812 0-0.32812 0.20312 0 0.1875 0.1875 0.1875 0.32812 0.1875zm0.015625 1.9375c0.14062 0 0.32812 0 0.32812-0.20312 0-0.1875-0.1875-0.1875-0.34375-0.1875h-5.9531c-0.14062 0-0.32812 0-0.32812 0.1875 0 0.20312 0.1875 0.20312 0.32812 0.20312z"/></g><g transform="translate(167.18 138.23)"><path d="m3.875 8.5156-1.75-3.875c-0.078125-0.15625-0.125-0.15625-0.15625-0.15625 0 0-0.0625 0-0.17188 0.078125l-0.9375 0.71875c-0.125 0.10938-0.125 0.125-0.125 0.15625 0 0.0625 0.015625 0.10938 0.09375 0.10938 0.0625 0 0.23438-0.14062 0.34375-0.21875 0.046875-0.046875 0.20312-0.15625 0.3125-0.23438l1.9688 4.3125c0.0625 0.15625 0.10938 0.15625 0.20312 0.15625 0.15625 0 0.1875-0.046875 0.25-0.1875l4.5312-9.375c0.0625-0.14062 0.0625-0.17188 0.0625-0.20312 0-0.09375-0.078125-0.20312-0.20312-0.20312-0.078125 0-0.14062 0.0625-0.21875 0.21875z"/></g></g><path d="m26.475 10.574h21.156v0.398h-21.156z"/><g transform="translate(-149.01 -127.26)"><g transform="translate(175.48 146.72)"><path d="m1.2656-0.76562 1.0625-1.0312c1.5469-1.375 2.1406-1.9062 2.1406-2.9062 0-1.1406-0.89062-1.9375-2.1094-1.9375-1.125 0-1.8594 0.92188-1.8594 1.8125 0 0.54688 0.5 0.54688 0.53125 0.54688 0.17188 0 0.51562-0.10938 0.51562-0.53125 0-0.25-0.1875-0.51562-0.53125-0.51562-0.078125 0-0.09375 0-0.125 0.015625 0.21875-0.65625 0.76562-1.0156 1.3438-1.0156 0.90625 0 1.3281 0.8125 1.3281 1.625 0 0.79688-0.48438 1.5781-1.0469 2.2031l-1.9062 2.125c-0.10938 0.10938-0.10938 0.14062-0.10938 0.375h3.7031l0.26562-1.7344h-0.23438c-0.0625 0.29688-0.125 0.73438-0.23438 0.89062-0.0625 0.078125-0.71875 0.078125-0.9375 0.078125z"/></g><g transform="translate(180.46 146.72)"><path d="m2.8594-6.8125s0-0.10938-0.125-0.10938c-0.23438 0-0.95312 0.078125-1.2188 0.10938-0.078125 0-0.1875 0.015625-0.1875 0.1875 0 0.125 0.09375 0.125 0.23438 0.125 0.48438 0 0.5 0.0625 0.5 0.17188l-0.03125 0.20312-1.4375 5.7344c-0.046875 0.14062-0.046875 0.15625-0.046875 0.21875 0 0.23438 0.20312 0.28125 0.29688 0.28125 0.15625 0 0.3125-0.125 0.35938-0.26562l0.1875-0.75 0.21875-0.89062c0.0625-0.23438 0.125-0.45312 0.17188-0.67188 0.015625-0.0625 0.10938-0.39062 0.10938-0.45312 0.03125-0.09375 0.34375-0.64062 0.6875-0.92188 0.21875-0.15625 0.51562-0.34375 0.95312-0.34375 0.42188 0 0.53125 0.34375 0.53125 0.70312 0 0.53125-0.375 1.625-0.60938 2.2344-0.078125 0.21875-0.14062 0.34375-0.14062 0.54688 0 0.46875 0.35938 0.8125 0.82812 0.8125 0.9375 0 1.2969-1.4531 1.2969-1.5312 0-0.10938-0.078125-0.10938-0.10938-0.10938-0.10938 0-0.10938 0.03125-0.15625 0.1875-0.14062 0.53125-0.46875 1.2344-1.0156 1.2344-0.17188 0-0.23438-0.09375-0.23438-0.32812 0-0.25 0.078125-0.48438 0.17188-0.70312 0.15625-0.4375 0.60938-1.625 0.60938-2.2031 0-0.64062-0.39062-1.0625-1.1406-1.0625-0.625 0-1.1094 0.3125-1.4844 0.76562z"/></g><g transform="translate(186.2 146.72)"><path d="m3.7344-6.125c0.0625-0.23438 0.09375-0.32812 0.28125-0.35938 0.09375-0.015625 0.40625-0.015625 0.60938-0.015625 0.70312 0 1.8125 0 1.8125 0.98438 0 0.34375-0.15625 1.0312-0.54688 1.4219-0.26562 0.25-0.78125 0.57812-1.6875 0.57812h-1.1094zm1.4375 2.7344c1.0156-0.21875 2.1875-0.92188 2.1875-1.9219 0-0.85938-0.89062-1.5-2.2031-1.5h-2.8281c-0.20312 0-0.29688 0-0.29688 0.20312 0 0.10938 0.09375 0.10938 0.28125 0.10938 0.015625 0 0.20312 0 0.375 0.015625 0.1875 0.03125 0.26562 0.03125 0.26562 0.17188 0 0.03125 0 0.0625-0.03125 0.1875l-1.3438 5.3438c-0.09375 0.39062-0.10938 0.46875-0.90625 0.46875-0.17188 0-0.26562 0-0.26562 0.20312 0 0.10938 0.125 0.10938 0.14062 0.10938 0.28125 0 0.98438-0.03125 1.25-0.03125 0.28125 0 1 0.03125 1.2812 0.03125 0.078125 0 0.1875 0 0.1875-0.20312 0-0.10938-0.078125-0.10938-0.28125-0.10938-0.35938 0-0.64062 0-0.64062-0.17188 0-0.0625 0.015625-0.10938 0.03125-0.17188l0.65625-2.6406h1.1875c0.90625 0 1.0781 0.5625 1.0781 0.90625 0 0.14062-0.078125 0.45312-0.14062 0.6875-0.0625 0.28125-0.15625 0.64062-0.15625 0.84375 0 1.0781 1.2031 1.0781 1.3281 1.0781 0.84375 0 1.2031-1 1.2031-1.1406 0-0.125-0.10938-0.125-0.125-0.125-0.09375 0-0.10938 0.0625-0.125 0.14062-0.25 0.73438-0.6875 0.90625-0.90625 0.90625-0.32812 0-0.40625-0.21875-0.40625-0.60938 0-0.3125 0.0625-0.8125 0.10938-1.1406 0.015625-0.14062 0.03125-0.32812 0.03125-0.46875 0-0.76562-0.67188-1.0781-0.9375-1.1719z"/></g><g transform="translate(193.85 143.84)"><path d="m2.0156-3.2969c0.0625-0.10938 0.0625-0.17188 0.0625-0.21875 0-0.21875-0.1875-0.375-0.40625-0.375-0.26562 0-0.34375 0.21875-0.375 0.32812l-0.92188 3.0156c-0.015625 0.015625-0.046875 0.09375-0.046875 0.10938 0 0.078125 0.21875 0.15625 0.28125 0.15625 0.046875 0 0.046875-0.015625 0.09375-0.125z"/></g></g></g></g></g></svg>
