<svg width="216" height="24" version="1.1" viewBox="0 0 57.15 6.35" xmlns="http://www.w3.org/2000/svg">
 <g transform="translate(7.8549 -139.21)">
  <path d="m7.5571 139.22c-0.066146 0-0.090951 0.04961-0.11576 0.10749l-2.7202 5.6803-1.1245-2.621-0.73587 0.57051 0.082682 0.08268 0.37207-0.28939 1.2072 2.8029c0.1571 0 0.16536-0.00801 0.21497-0.10749l2.8804-6.0084h31.005a0.1085 0.1085 0 0 0 0.10955-0.10956 0.1085 0.1085 0 0 0-0.10955-0.10749h-31.053c-0.0039361-3.7e-4 -0.0082684-5.1e-4 -0.012402-5.1e-4zm16.819 1.0098c-0.44328 0.00984-0.74776 0.32775-0.74776 0.66145 0 0.1819 0.1571 0.20671 0.19844 0.20671 0.08268 0 0.19017-0.0661 0.19017-0.19844 0-0.0662-0.024799-0.19844-0.21497-0.19844 0.11576-0.2563 0.3638-0.33899 0.53744-0.33899 0.37207 0 0.56224 0.28938 0.56224 0.58704 0 0.32246-0.23151 0.57051-0.34727 0.7028l-0.8847 0.8847c-0.04134 0.0331-0.041341 0.0413-0.041341 0.14056h1.5214l0.10749-0.66973h-0.12402c-0.0083 0.0827-0.049609 0.29766-0.099219 0.33073-0.0248 0.0248-0.30592 0.02481-0.3638 0.02481h-0.678c0.38861-0.339 0.5209-0.44649 0.73587-0.62012 0.27285-0.21497 0.52917-0.44649 0.52917-0.79375 0-0.44649-0.38861-0.71933-0.8599-0.71933-0.007106 0-0.014152-1.6e-4 -0.021188 0zm12.852 0c-0.44328 0.00984-0.74776 0.32775-0.74776 0.66145 0 0.1819 0.1571 0.20671 0.19844 0.20671 0.08268 0 0.19017-0.0661 0.19017-0.19844 0-0.0662-0.02481-0.19844-0.21497-0.19844 0.11576-0.2563 0.3638-0.33899 0.53743-0.33899 0.37207 0 0.56224 0.28938 0.56224 0.58704 0 0.32246-0.23151 0.57051-0.34727 0.7028l-0.8847 0.8847c-0.04134 0.0331-0.041341 0.0413-0.041341 0.14056h1.5214l0.10749-0.66973h-0.12402c-0.008299 0.0827-0.049608 0.29766-0.099218 0.33073-0.0248 0.0248-0.30592 0.02481-0.3638 0.02481h-0.678c0.38861-0.339 0.5209-0.44649 0.73587-0.62012 0.27285-0.21497 0.52917-0.44649 0.52917-0.79375 0-0.44649-0.38861-0.71933-0.8599-0.71933-0.007105 0-0.014151-1.6e-4 -0.021187 0zm-27.98 0.00981c-0.057878 0-0.52917 0.3638-0.84336 1.0335-0.26458 0.57877-0.33073 1.1658-0.33073 1.604 0 0.41341 0.057878 1.0501 0.34727 1.6536 0.32246 0.64491 0.76895 0.99218 0.82682 0.99218 0.033073 0 0.049609-0.01647 0.049609-0.05787 0-0.0165 4e-7 -0.0248-0.09095-0.11576-0.65319-0.66145-0.82682-1.6619-0.82682-2.4722 0-0.91777 0.19844-1.8356 0.85163-2.4887 0.066146-0.0661 0.066146-0.07445 0.066146-0.09095 0-0.0413-0.016536-0.05788-0.049609-0.05788zm12.454 0c-0.03307 0-0.057878 0.02478-0.057878 0.05788 0 0.0165-1e-6 0.0248 0.099219 0.12403 0.5209 0.52089 0.81856 1.356 0.81856 2.4557 0 0.90951-0.19017 1.8356-0.84336 2.497-0.07442 0.0661-0.074414 0.07446-0.074414 0.09096 0 0.0331 0.024808 0.05787 0.057878 0.05787 0.04961 0 0.52917-0.3638 0.83509-1.0335 0.27285-0.57878 0.33073-1.1658 0.33073-1.6123 0-0.40514-0.05788-1.0418-0.34727-1.6454-0.31419-0.64492-0.76894-0.99219-0.81855-0.99219zm-0.44545 0.29766c-0.08268 0-0.57878 0.04958-0.66973 0.05788-0.04134 8e-3 -0.074414 0.03312-0.074414 0.09922s0.04961 0.06614 0.12402 0.06614c0.25631 0 0.26458 0.03305 0.26458 0.09095l-0.016536 0.10749-0.31419 1.2485c-0.09922-0.19844-0.24805-0.33899-0.48783-0.33899-0.61185 0-1.265 0.77721-1.265 1.5462 0 0.49609 0.28939 0.84336 0.69453 0.84336 0.10749 0 0.37207-0.02479 0.68626-0.39687 0.04134 0.22324 0.23151 0.39687 0.47956 0.39687 0.19017 0 0.30592-0.12402 0.39688-0.28938 0.08268-0.19017 0.1571-0.51263 0.1571-0.5209 0-0.0579-0.049606-0.05788-0.066146-0.05788-0.04961 0-0.057884 0.02482-0.074414 0.09922-0.09095 0.339-0.1819 0.65319-0.39688 0.65319-0.14883 0-0.1571-0.14056-0.1571-0.23978 0-0.13229 0.008295-0.16537 0.024805-0.25632l0.76068-3.051s4e-6 -0.05788-0.066146-0.05788zm12.18 0.05788c-0.10749 0-0.1571 0-0.1571 0.10749 0 0.0579 0.049609 0.05787 0.14883 0.05787 0.0083 0 0.10749 2.7e-4 0.19844 0.00827 0.09922 0.0165 0.14056 0.01645 0.14056 0.09095 0 0.0165 4e-6 0.03312-0.016536 0.09922l-0.71107 2.8277c-0.04961 0.2067-0.05788 0.24805-0.47956 0.24805-0.09095 0-0.14056 1e-5 -0.14056 0.10749 0 0.0579 0.066154 0.05788 0.074414 0.05788 0.14883 0 0.5209-0.01654 0.66146-0.01654 0.14883 0 0.52917 0.01654 0.678 0.01654 0.04134 0 0.099219 0 0.099219-0.10749 0-0.0579-0.041341-0.05788-0.14883-0.05788-0.19017 0-0.339 5e-5 -0.339-0.09095 0-0.0331 0.008297-0.05795 0.016537-0.09095l0.34726-1.3973h0.62839c0.47956 0 0.57051 0.29766 0.57051 0.47956 0 0.0744-0.041344 0.23978-0.074414 0.3638-0.03307 0.14883-0.082682 0.33899-0.082682 0.44648 0 0.57051 0.63665 0.57051 0.7028 0.57051 0.44648 0 0.63665-0.52916 0.63665-0.60358 0-0.0661-0.057876-0.06615-0.066146-0.06615-0.04961 0-0.057875 0.03312-0.066145 0.07442-0.13229 0.38861-0.3638 0.47956-0.47956 0.47956-0.17363 0-0.21497-0.11577-0.21497-0.32246 0-0.16537 0.033068-0.42996 0.057878-0.60359 0.0083-0.0744 0.016536-0.17363 0.016536-0.24804 0-0.40514-0.35553-0.57051-0.49609-0.62012 0.53743-0.11575 1.1576-0.48782 1.1576-1.017 0-0.45475-0.47129-0.79375-1.1658-0.79375h-1.4965zm12.852 0c-0.10749 0-0.1571 0-0.1571 0.10749 0 0.0579 0.049609 0.05787 0.14883 0.05787 0.0083 0 0.10749 2.7e-4 0.19844 0.00827 0.09922 0.0165 0.14056 0.01645 0.14056 0.09095 0 0.0165 3e-6 0.03312-0.016537 0.09922l-0.71107 2.8277c-0.04961 0.2067-0.057879 0.24805-0.47956 0.24805-0.09095 0-0.14056 1e-5 -0.14056 0.10749 0 0.0579 0.066154 0.05788 0.074414 0.05788 0.14883 0 0.5209-0.01654 0.66146-0.01654 0.14883 0 0.52917 0.01654 0.67799 0.01654 0.04134 0 0.099219 0 0.099219-0.10749 0-0.0579-0.04134-0.05788-0.14883-0.05788-0.19017 0-0.339 5e-5 -0.339-0.09095 0-0.0331 0.008296-0.05795 0.016536-0.09095l0.34727-1.3973h0.62838c0.47956 0 0.57051 0.29766 0.57051 0.47956 0 0.0744-0.041344 0.23978-0.074414 0.3638-0.03307 0.14883-0.082682 0.33899-0.082682 0.44648 0 0.57051 0.63665 0.57051 0.7028 0.57051 0.44648 0 0.63665-0.52916 0.63665-0.60358 0-0.0661-0.057876-0.06615-0.066146-0.06615-0.04961 0-0.057876 0.03312-0.066146 0.07442-0.13229 0.38861-0.3638 0.47956-0.47956 0.47956-0.17363 0-0.21497-0.11577-0.21497-0.32246 0-0.16537 0.033067-0.42996 0.057877-0.60359 0.0083-0.0744 0.016537-0.17363 0.016537-0.24804 0-0.40514-0.35553-0.57051-0.49609-0.62012 0.53744-0.11575 1.1576-0.48782 1.1576-1.017 0-0.45475-0.47129-0.79375-1.1658-0.79375h-1.4966zm-11.725 0.16588c0.031393-1.3e-4 0.061495 0 0.088367 0 0.37207 0 0.95911 0 0.95911 0.5209 0 0.1819-0.082679 0.54571-0.28939 0.75241-0.14056 0.13229-0.41341 0.30592-0.89297 0.30592h-0.58704l0.339-1.3813c0.03307-0.12402 0.04961-0.17363 0.14883-0.19017 0.037207-6e-3 0.13991-0.00738 0.23409-0.00775zm12.852 0c0.031394-1.3e-4 0.061495 0 0.088367 0 0.37207 0 0.95912 0 0.95912 0.5209 0 0.1819-0.08268 0.54571-0.28939 0.75241-0.14056 0.13229-0.41341 0.30592-0.89297 0.30592h-0.58704l0.339-1.3813c0.03307-0.12402 0.04961-0.17363 0.14883-0.19017 0.037208-6e-3 0.13991-0.00738 0.23409-0.00775zm-18.432 0.36328c-0.10749 0-0.10749 0.09921-0.10749 0.17364v1.48h-1.4717c-0.07441 0-0.17363 2e-5 -0.17363 0.09922 0 0.10749 0.09922 0.10749 0.17363 0.10749h1.4717v1.48c0 0.0744 0 0.17363 0.10749 0.17363s0.10749-0.09919 0.10749-0.17363v-1.48h1.4717c0.074409 0 0.17363 0 0.17363-0.10749 0-0.0992-0.09922-0.09922-0.17363-0.09922h-1.4717v-1.48c0-0.0744 0-0.17364-0.10749-0.17364zm-35.578 0.74415c-0.5457 0-0.85163 0.67799-0.85163 0.81028 0 0.0579 0.057878 0.05788 0.066146 0.05788 0.041341 0 0.057878-0.01648 0.066146-0.05788 0.1819-0.56224 0.52917-0.69453 0.71107-0.69453 0.099219 0 0.28112 0.04959 0.28112 0.35553 0 0.16536-0.090951 0.51264-0.28112 1.2568-0.082682 0.32245-0.27285 0.5457-0.50436 0.5457-0.033073 0-0.14883-5e-5 -0.26458-0.06615 0.13229-0.0331 0.24805-0.14056 0.24805-0.28939 0-0.14056-0.11576-0.1819-0.19017-0.1819-0.16536 0-0.28939 0.1323-0.28939 0.30593 0 0.23978 0.25632 0.34726 0.48783 0.34726 0.35553 0 0.5457-0.37206 0.55397-0.39687 0.066146 0.19017 0.25632 0.39687 0.57051 0.39687 0.5457 0 0.84336-0.67799 0.84336-0.81028 0-0.0579-0.041341-0.05788-0.057878-0.05788-0.049609 0-0.057878 0.02478-0.074414 0.05788-0.17363 0.57051-0.52917 0.69453-0.69453 0.69453-0.20671 0-0.28939-0.16537-0.28939-0.34727 0-0.11576 0.024805-0.23151 0.082682-0.46302l0.1819-0.7276c0.033073-0.13229 0.1571-0.62012 0.5209-0.62012 0.024805 0 0.1571-5e-5 0.26458 0.06615-0.14883 0.0331-0.24805 0.15709-0.24805 0.28938 0 0.0827 0.057878 0.18191 0.19844 0.18191 0.11576 0 0.28112-0.0909 0.28112-0.30593 0-0.27285-0.30592-0.34726-0.48783-0.34726-0.30592 0-0.48783 0.28112-0.55397 0.39687-0.13229-0.34726-0.41341-0.39687-0.57051-0.39687zm17.827 0c-0.7028 0-1.4139 0.75241-1.4139 1.4965 0 0.5209 0.35553 0.89297 0.84336 0.89297 0.7028 0 1.4139-0.72761 1.4139-1.4966 0-0.55397-0.3638-0.89296-0.84336-0.89296zm0 0.11575c0.30592 0 0.46302 0.25632 0.46302 0.57051 0 0.20671-0.10749 0.76067-0.30592 1.0997-0.19017 0.30592-0.47956 0.48783-0.71934 0.48783-0.23151 0-0.46302-0.16537-0.46302-0.57878 0-0.25632 0.14056-0.82682 0.30592-1.0914 0.26458-0.40514 0.57051-0.48783 0.71934-0.48783zm8.8584 0c0.339 0 0.41341 0.42995 0.41341 0.46302 0 0.0331-0.008296 0.06615-0.016536 0.09095l-0.25632 1.0335c-0.03307 0.0992-0.03307 0.10749-0.10749 0.19844-0.23151 0.28939-0.44648 0.37207-0.59531 0.37207-0.26458 0-0.339-0.2894-0.339-0.4961 0-0.26459 0.16536-0.90951 0.28939-1.1576 0.16536-0.30593 0.39688-0.50436 0.61185-0.50436zm-22.902 0.28112c-0.074414 0-0.17363 0-0.17363 0.10749 0 0.0992 0.099219 0.09922 0.17363 0.09922h3.1502c0.082682 0 0.1819-2e-5 0.1819-0.09922 0-0.10749-0.099219-0.10749-0.17363-0.10749h-3.1585zm16.762 0.51263c-0.09095 0-0.1819 2e-5 -0.1819 0.09922 0 0.10749 0.090949 0.10749 0.1819 0.10749h2.8525c0.09095 0 0.19017 0 0.19017-0.10749 0-0.0992-0.099219-0.09922-0.19017-0.09922h-2.8525zm26.455 0c-0.09095 0-0.1819 2e-5 -0.1819 0.09922 0 0.10749 0.090949 0.10749 0.1819 0.10749h2.8525c0.09095 0 0.19017 0 0.19017-0.10749 0-0.0992-0.099219-0.09922-0.19017-0.09922h-2.8525zm-43.217 0.51263c-0.074414 0-0.17363 2e-5 -0.17363 0.09922 0 0.10749 0.099219 0.10749 0.17363 0.10749h3.1585c0.074414 0 0.17363 0 0.17363-0.10749 0-0.0992-0.099219-0.09922-0.1819-0.09922h-3.1502z" stroke-width=".35278"/>
 </g>
</svg>
