<?xml version="1.0" encoding="UTF-8"?>
<svg width="220pt" height="220pt" version="1.2" viewBox="0 0 220 220" xmlns="http://www.w3.org/2000/svg">
 <path d="m109.95 0.64285c-15.516 0-23.465 0.53516-28.238 1.8984-1.1445 0.32812-1.2734 0.44141-1.793 1.6055-0.49219 1.1016-0.57031 1.6992-0.64844 5.0273-0.09375 4.1484 0.25 8.8008 0.77734 10.527 0.69141 2.2695 2.1484 4.3047 3.4258 4.7891 0.32422 0.125 1.8516 0.21094 3.3906 0.19531 3.1367-0.03516 5.9805 0.21484 6.1836 0.54297 0.07422 0.11719-0.0039 0.83203-0.16797 1.5898-0.33594 1.5352-0.30469 5.3906-0.01562 7.5273-0.19141-0.0039-0.38281-0.02734-0.56641-0.02734-3.5781 0-9.6602 1.9922-14.223 4.6602-0.32812 0.19141-1.2227 0.65234-1.9883 1.0195-2.8945 1.3984-5.8438 4.3711-6.5117 6.5625-0.17969 0.59766-0.45703 1.0469-0.61719 1.0117-2.2188-0.52344-3.8477-0.16797-6.5352 1.4102-2.4102 1.4219-4.2188 3.2422-6.5898 6.6406-3.2148 4.6133-4.5078 6.7188-5.9727 9.7539-1.4375 2.9805-1.7461 4.1172-1.3281 4.8945 0.23047 0.42969 0.16016 0.57031-0.51562 1.043-1.4258 0.99609-2.0938 1.9727-4.0039 5.8477-2.0625 4.1719-3.6836 8.8984-4.1484 12.078-0.30859 2.1172 0.04297 5.0547 0.67187 5.5742 0.49219 0.41016 0.42578 0.77344-0.36719 2.0703-1.0547 1.7266-1.6523 3.8008-2.4414 8.4648-0.88672 5.2266-1.082 8.0586-0.71484 10.18 0.29688 1.6914 1.2148 4.0352 1.8633 4.7539 0.34766 0.38672 0.28906 0.58984-0.74219 2.5898-1.5195 2.9375-1.9375 5.8711-1.7305 12.125 0.19531 6.0938 0.76953 9.5898 1.9375 11.848 0.375 0.73047 0.36328 0.78125-0.72266 2.8398-0.71875 1.3672-1.2227 2.7109-1.4414 3.8672-0.625 3.2656-0.30078 11.465 0.62109 15.648 0.24609 1.1211 0.51172 2.4453 0.59375 2.9453 0.20312 1.2344 0.96875 2.4609 1.8906 3.0312 1.7734 1.0977 4.2773 1.5234 9.875 1.6914 2.9023 0.0859 5.7109 0.12891 6.2383 0.0937 1.9727-0.13672 10.359-0.40234 11.281-0.35937 2.1914 0.10156 6.4531-0.46094 7.8789-1.0352 1.2969-0.52734 1.5-0.55078 2.0938-0.24219 1.8711 0.96875 7.1641 1.4023 16.781 1.4492 0.21875 3 0.51172 5.7188 1.0508 9.457 0.42578 2.9648 2.332 9.7031 3.8555 13.652 1.6289 4.2148 8.1914 16.441 10.008 18.645 0.55859 0.67969 0.83984 0.82812 1.6016 0.82812 1.2148 0 1.6562-0.55078 4.6094-5.6953 5.3516-9.3438 7.3281-13.77 9.3984-21.066 1.1719-4.1328 1.5547-6.3398 2.3477-13.441 0.082-0.72656 0.11719-1.5469 0.17578-2.2695 0.96484-0.0117 1.918-0.0117 2.8398-0.0352 8.5273-0.19531 11.73-0.52344 13.707-1.3945 1.0156-0.44922 1.0195-0.45312 2.4297 0.11719 1.457 0.58984 4.8359 1.0078 8.4609 1.0508 0.99219 0.0117 3.9609 0.10156 6.6016 0.19922 2.6406 0.0977 7.2305 0.11328 10.199 0.0352 5.7305-0.15625 8.2031-0.57032 9.9961-1.6797 0.92188-0.57032 1.6875-1.7969 1.8906-3.0312 0.0781-0.49609 0.34766-1.8242 0.59375-2.9453 0.92188-4.1797 1.2461-12.383 0.62109-15.648-0.21875-1.1523-0.72266-2.5-1.4414-3.8672l-1.1055-2.0898 0.51172-1.0039c0.28125-0.55078 0.83203-2.25 1.2227-3.7773 0.6875-2.6797 0.71094-2.9531 0.70313-8.1758-0.0117-6.4297-0.375-8.6484-1.9492-11.906-0.90625-1.8633-0.96094-2.0938-0.62891-2.4609 0.64063-0.70703 1.5586-3.0586 1.8516-4.7422 0.36719-2.1211 0.16797-4.9531-0.71484-10.18-0.78125-4.6133-1.3867-6.7383-2.3984-8.3945-0.60156-0.98047-0.63281-1.1523-0.35938-1.8008 0.73828-1.7305 0.28516-5.3516-1.2344-9.832-0.57812-1.7188-1.3867-4.3633-1.8008-5.8828-1.1562-4.2656-2.4844-6.6953-4.418-8.0742-0.65625-0.46875-0.70312-0.59766-0.64844-1.9141 0.0781-2.0078-0.66016-4.1445-2.4531-7.1016-4.1172-6.793-7.8867-11.258-11.188-13.262-2.5742-1.5664-4.5156-2.0664-6.1719-1.5898-0.75 0.21484-0.76562 0.20312-0.92188-0.72656-0.34766-2.0469-3.6445-5.418-6.5977-6.7461-0.85547-0.38672-1.8281-0.85547-2.1562-1.0508-5.7734-3.3555-12.84-5.2344-16.535-4.4727 0.33594-1.4141 0.625-3.1719 0.77344-4.9023 0.13672-1.5859 0.0898-2.1758-0.25781-3.1211-0.23828-0.64063-0.51953-1.2656-0.63281-1.3906-0.10938-0.125-0.19922-0.30859-0.19922-0.40234 0-0.09766 2.2969-0.125 5.1016-0.0625s5.4414 0.05078 5.8594-0.02344c1.3906-0.25391 3.0508-2.3789 3.8203-4.8984 0.52734-1.7266 0.87109-6.3789 0.77734-10.527-0.0781-3.3281-0.15625-3.9258-0.64844-5.0273-0.51953-1.1641-0.64844-1.2773-1.7969-1.6055-4.7695-1.3633-12.719-1.8984-28.23-1.8984zm-7.7344 4.6445c2.3438-0.00391 4.9883-0.00391 7.9727 0 18.344 0.019531 22.34 0.14062 24.633 0.73438 0.89062 0.23047 1.0078 0.34766 1.1367 1.1367 0.25 1.5117 0.13281 8.4609-0.17969 10.676-0.17969 1.2656-0.4375 2.1992-0.63281 2.3203-0.64844 0.40234-2.8242 0.53906-8.3945 0.53906-3.3086 0-7.332-0.16016-9.7227-0.38672-3.4375-0.32422-5.2695-0.35156-11.641-0.15625-4.1562 0.125-8.3164 0.33594-9.2383 0.46484-0.92578 0.12891-2.2734 0.21875-3 0.20703-3.0742-0.06641-7.832-0.375-8.207-0.53516-0.4375-0.1875-0.54687-0.56641-0.91016-3.1328-0.26562-1.8945-0.32812-8.7695-0.08984-9.957 0.31641-1.5703 1.8867-1.8789 18.273-1.9102zm12.461 18.723c3.418 0 4.5508 0.07422 4.8633 0.26562 0.95703 0.57813 1.6133 2.2812 1.75 4.5547 0.15234 2.5586-0.0742 3.8906-0.79297 4.6562-0.53125 0.56641-1.0195 0.66406-2.0156 0.41406-0.25391-0.06641-2.7383-1.582-5.5195-3.3711-2.7773-1.7852-6.4141-3.9609-8.0781-4.832l-3.0234-1.5859 8.5781-0.07813c1.7031-0.01563 3.0977-0.02344 4.2383-0.02344zm-15.633 1.8477c0.63281-0.02734 1.5977 0.61719 3.9453 2.3711 2.8594 2.1328 10.125 7.0703 12.77 8.6719 0.82812 0.50391 2.0352 1.1133 2.6758 1.3555 1.4492 0.54297 1.9141 1.457 2.3242 4.5508 0.32812 2.457 0.20703 3.8281-0.38672 4.4844-0.84375 0.93359-2.0352 0.60547-5.5117-1.5039-1.1914-0.72656-3.8164-2.207-5.8359-3.293-3.7578-2.0234-9.0039-5.5039-10.16-6.7422-0.92969-0.99609-1.1523-2.1055-1.1523-5.707-0.0039-3.0625 0.01953-3.2148 0.57812-3.7734 0.25-0.25 0.46875-0.40234 0.75391-0.41406zm27.871 12.836c0.37109 0.01563 0.67578 0.03906 0.67578 0.03906 3.9883 0.36328 8.0938 1.7734 12.734 4.3789 1.3398 0.75 3.0078 1.6719 3.7109 2.043 1.3516 0.71484 2.1836 1.5234 2.1914 2.125 8e-3 0.95703-3.543 6.7539-8.2344 13.438-3.6484 5.2031-4.9844 6.8008-6.293 7.5352-1.6211 0.90625-3.7617 0.88281-5.7617-0.0625-0.42578-0.20312-0.84766-0.44531-1.2695-0.67578-0.0273-0.07422-0.043-0.17188-0.0742-0.24609l-0.53906-1.2461 0.48828-0.68359c1.5977-2.2422 2.1914-7.4922 1.2617-11.105-0.28906-1.1211-0.73438-2.3945-0.99219-2.8281-0.41016-0.69922-0.42578-0.87109-0.14062-1.4414 1.3008-2.5781 1.4297-7.1211 0.29688-10.469l-0.16406-0.48047c4e-3 0 8e-3 -0.02344 0.0117-0.02734 0 0 0.66016-0.19922 0.99609-0.25781 0.28125-0.04688 0.72656-0.04688 1.1016-0.03516zm-32.426 0.05859c-0.01563 0.43359-0.22266 1.0234-0.65234 2.1602-0.45312 1.2188-0.53906 1.9258-0.54297 4.5625-0.0078 2.9141 0.03516 3.1992 0.62891 4.3477l0.64062 1.2266-0.6875 1.7734c-0.37891 0.98828-0.8125 2.7812-0.98047 4.0547-0.37109 2.8828 0.04297 5.2617 1.3789 7.8672 0.88281 1.7227 0.89062 1.7539 0.46875 2.3984-0.19141 0.29688-0.32422 0.61719-0.49219 0.92578-1.4219 0.70703-1.8789 0.80859-3.2891 0.79297-2.8047-0.03125-3.2266-0.41406-8.3398-7.543-3.3711-4.707-6.3359-9.3008-7.6055-11.793-1.1172-2.1914-1.1328-2.2461-0.73828-2.8984 0.46484-0.78125 6.0781-4.0859 9.5078-5.5977 2.7188-1.2031 6.3164-2.1211 8.6523-2.207zm4.918 2.168c0.58203 0.0078 8.1055 4.7227 12.461 7.8125 1.2539 0.88672 3.4688 2.2383 4.9219 3 4.0742 2.1367 3.8086 1.8398 4.3125 4.7695 0.49219 2.8906 0.39062 4.9414-0.29688 5.8633-0.24609 0.32812-0.54688 0.62891-0.67188 0.66797-0.125 0.03516-1.6289-0.80078-3.3438-1.8594-1.7188-1.0625-5.9844-3.5781-9.4805-5.5938-7.0312-4.0508-8.2148-4.9883-8.9922-7.1367-0.68359-1.8828-0.67578-5.5312 0.0078-6.6914 0.35547-0.59766 0.66797-0.83594 1.082-0.83203zm52.379 10.676c1.5234 0.0039 4.0625 1.3086 5.6953 2.9297 1.5312 1.5234 5.6953 6.9336 7.3164 9.5117 1.0625 1.6953 1.1484 1.9414 1.0625 3.0664-0.0625 0.76953-0.34375 1.6484-0.76562 2.3633-0.66406 1.1328-0.71875 1.168-8.1406 4.793-7.1016 3.4688-11.488 5.8203-12.82 6.8672-0.875 0.68359-2.0938 0.58984-3.8984-0.30859-1.3867-0.69531-1.7617-1.0508-3.3867-3.2188-2.8477-3.793-2.8047-4.7812 0.375-8.8359 1.7734-2.2656 4.7578-6.4102 7.543-10.484 0.69141-1.0078 2.3047-2.9258 3.5859-4.2617 2.293-2.3906 2.3398-2.4258 3.4336-2.4219zm-82.23 0.02734 2.2109 2.2969c1.4453 1.5039 3.4961 4.1328 5.9297 7.6094 2.043 2.918 4.5859 6.3906 5.6445 7.7109 1.8008 2.2422 1.9258 2.4727 1.9297 3.5469 0.0039 0.62891-0.15625 1.5352-0.35156 2.0078-0.53125 1.2695-2.6484 3.7734-3.6836 4.3555-0.49609 0.27734-1.1133 0.73828-1.3711 1.0234-0.25781 0.28516-0.91797 0.83203-1.4688 1.2109-0.55469 0.38281-1.0508 0.69531-1.1055 0.69531-0.05469 0-0.57422-0.34766-1.1562-0.76562-2.0078-1.457-5.6445-3.418-13.09-7.0547-7.2734-3.5508-7.4922-3.6797-8.1016-4.7188-0.45703-0.77734-0.625-1.4023-0.625-2.3164 0-1.1289 0.15625-1.5039 1.6094-3.8203 0.88672-1.4102 2.0781-3.2148 2.6484-4.0039 0.57031-0.79297 1.457-2.0469 1.9766-2.7891 1.9492-2.7969 5.3516-4.9844 7.75-4.9883zm30.484 3.0078 1.1758 0.6875c0.64453 0.375 1.9492 1.3047 2.9023 2.0586 2.2305 1.7734 5.332 3.6836 9.4102 5.8008 4.4453 2.3086 6.3047 3.6914 6.9219 5.1562 1.0391 2.4609 0.89062 4.1641-0.49609 5.6406-1.1836 1.2539-2.3867 0.85156-11.566-3.8828-6.0625-3.1289-8.6836-4.7773-10.234-6.4297l-1.0938-1.1719 0.02344-2.7578c0.02734-2.918 0.70312-3.9062 2.957-5.1016zm-0.4375 14.68c0.46484 0.04687 1.2148 0.35547 2.9883 1.1211 1.6602 0.71484 3.9102 1.8086 5.0078 2.4258 3.8633 2.1797 10.395 6.1914 10.684 6.5625 0.45703 0.58594 0.35547 1.1445-0.23438 1.3047-0.64453 0.17188-2.6211 0.14062-7.6211-0.12109-2.0469-0.10547-5.2852-0.20703-7.1992-0.22266-1.9141-0.01563-3.668-0.08203-3.9023-0.14453-1.0586-0.28906-1.7227-2.9492-1.7305-6.9219-0.0078-2.2305 0.37891-3.3594 1.3203-3.8438 0.23047-0.12109 0.40625-0.1875 0.6875-0.16016zm-46.809 4.5703 8.9805 4.4375c4.9414 2.4414 9.4805 4.8008 10.09 5.2422 4.2969 3.1094 4.4336 3.3047 4.3633 6.1992-0.07422 2.9453-1.0586 7.4023-2.1094 9.5273-0.57422 1.1641-1.0039 1.75-1.2734 1.7422-0.22266-4e-3 -1.832-0.48438-3.5703-1.0625-1.7422-0.57812-4.4961-1.3398-6.1211-1.6875-1.625-0.35156-4.4141-1.0039-6.1953-1.4453-1.7812-0.44531-4.25-0.98047-5.4883-1.1953-4.3125-0.74219-6.2891-1.3945-6.7109-2.2227-0.26172-0.50781 0.05859-3.9062 0.52734-5.6445 1.4805-5.4844 3.6172-11.129 4.7227-12.469 0.44922-0.54297 1.0508-0.9375 1.7344-1.1289zm114.43 0.0039 1.0391 0.29297c1.4609 0.40625 2.207 1.4375 3.6172 4.9922 1.2188 3.0742 3.8789 12.176 3.8789 13.266 0 1.4453-1.8984 2.2891-7.2305 3.207-1.2383 0.21094-3.707 0.74609-5.4922 1.1914-1.7812 0.44141-4.5703 1.0938-6.1914 1.4453-1.625 0.34766-4.4062 1.1133-6.1836 1.6953-1.7734 0.58594-3.3828 1.0625-3.5742 1.0625-0.54297 0-2.0078-3.3008-2.5195-5.6758-1.4688-6.7969-1.2344-8.1289 1.8789-10.602 1.8477-1.4688 4.1797-2.7422 12.504-6.8203zm-73.43 12.184c1.3867 0.0039 2.9258 0.01172 4.6328 0.02734 2.3125 0.02344 11.922 0.07031 21.363 0.10938 18.031 0.07031 18.199 0.08203 18.602 1.1211 0.082 0.21484 0.32422 2.4414 0.39844 4.957 0 0 0.15234 2.7812 0.125 4.1758-0.0156 0.69922-0.15234 2.0938-0.15234 2.0938-0.34375 2.1133-1.4922 2.1406-2.7266 2.375-0.55469 0.10547-10.402 0.21094-21.887 0.23438-11.828 0.0273-21.121 0.25781-21.48 0.26172-1.2305 0.0234-4.7656 0.0117-7.8984-0.45312-2.4336-0.35938-2.7227-0.64844-3.2891-3.2969-0.30078-1.4062-0.35547-2.6914-0.26172-5.8789 0.06641-2.2461 0.19531-4.2617 0.28125-4.4844 0.40234-0.99219 2.5938-1.2695 12.293-1.2422zm-47.547 13.188c2.0547-0.04297 5.8281 0.80469 14.188 2.9727 8.0547 2.0859 11.398 3.4453 12.059 4.8906 0.42188 0.92969 0.32422 5.3125-0.20312 8.7773-0.59766 3.9258-0.95312 4.8828-2.0508 5.5312-0.45703 0.26953-0.85156 0.47656-0.87891 0.45703-0.02344-0.0156-1.5039-0.22266-3.2852-0.45703-4.5586-0.60157-11.672-1.168-16.93-1.3516-5.1641-0.17968-5.5781-0.32421-6.5625-2.3125-0.52344-1.0547-0.58203-1.5352-0.69141-5.5195-0.17578-6.4727 0.72656-11.254 2.3516-12.41 0.49219-0.35156 1.0703-0.55469 2.0039-0.57812zm127.5 0c0.93359 0.02344 1.5117 0.22656 2.0039 0.57812 1.6211 1.1562 2.5273 5.9375 2.3516 12.41-0.10938 3.9844-0.17188 4.4648-0.69531 5.5195-0.98438 1.9922-1.3945 2.1328-6.6094 2.3164-4.8945 0.16797-11.262 0.65625-16.402 1.2539-1.7812 0.20703-3.3984 0.41016-3.5977 0.45703-0.69922 0.16016-1.8789-0.82422-2.2422-1.8672-1.3281-3.832-2.0078-10.867-1.2109-12.547 0.8125-1.7188 3.7383-2.9492 12.211-5.1484 8.3594-2.1641 12.137-3.0156 14.191-2.9727zm-78.656 6.3438 14.75 0.0586c8.1094 0.0312 14.746 0.0977 14.746 0.14844 0 0.0508-0.31641 1.4531-0.70703 3.1211-0.38672 1.6641-0.83984 4.3242-1.0039 5.9062-0.29688 2.8594-0.34766 6.0742-0.50391 30.059-5.8047 0.0312-9.4336 0.0664-10.328 0.22266-8e-3 -2.9883-0.0117-6.1367 8e-3 -7.7188 0.0273-2.5117-0.0547-7.7969-0.18359-11.746-0.23047-6.875-0.26562-7.2109-0.76172-7.7422-0.32422-0.34375-0.59766-0.51953-0.87891-0.52344-0.28125-8e-3 -0.57031 0.16016-0.92188 0.49219-0.43359 0.40625-0.55469 0.77734-0.55469 1.6836 0 0.63672-0.16797 2.1914-0.37109 3.457-0.30078 1.8711-0.35937 5.9102-0.36328 22.074-1.3086-0.27734-4.1953-0.34766-10.492-0.33203-0.16016-23.84-0.20703-27.074-0.50781-29.926-0.31641-2.957-1.043-6.7344-1.6055-8.332zm78.359 18.703c2.8242-4e-3 3.1445 0.043 3.6367 0.50781 0.83984 0.78906 1.3359 3.25 1.5938 7.9062 0.35938 6.5312 0.0469 9.0156-1.3203 10.445l-0.76172 0.79687-5.5234 0.26172c-7.7695 0.36719-12.496 0.28906-21.02-0.33984l-2.5391-0.19141-0.28125-4.1055c-0.15625-2.2578-0.27734-4.9688-0.27344-6.0273 0.0156-2.3047 0.54297-6.5312 0.85156-6.8086 0.46094-0.41016 3.1914-0.98828 4.6797-0.99608 0.85156 0 2.2461-0.10157 3.1055-0.22267 3.6523-0.51561 13.961-1.2227 17.852-1.2266zm-126.91 0c3.8906 8e-3 14.199 0.71483 17.852 1.2266 0.85937 0.12109 2.2578 0.22266 3.1055 0.22656 1.4883 4e-3 4.2188 0.58594 4.6797 0.99219 0.45312 0.41016 0.69141 2.8672 0.71484 7.4102 0.01172 2.5742-0.07422 5.7734-0.19141 7.1094l-0.21094 2.4258-2.3086 0.16016c-1.2695 0.0898-3.8203 0.26172-5.668 0.37891-4.0508 0.26562-10.656 0.25-16.68-0.0391l-4.4375-0.21484-0.74219-0.78516c-1.0703-1.1289-1.6719-4.2461-1.6289-8.4336 0.04687-4.4805 0.90625-9.0352 1.875-9.9453 0.5-0.46875 0.80859-0.51172 3.6406-0.51172zm102.7 24.535c0.35547-4e-3 0.625 0.0156 0.73438 0.0547 1.4805 0.57031 15.508 0.8125 21.941 0.3789 2.9531-0.19922 3.9375-0.1875 4.7812 0.0625 1.2422 0.36719 1.1758 0.21485 2.0664 4.9805 0.96094 5.1328 0.74219 11.219-0.55078 15.336-0.36719 1.1641-0.51172 1.3398-1.4922 1.7695-0.78125 0.34765-1.7617 0.5039-3.4883 0.5664v4e-3c-3.8516 0.13672-14.746 0.25781-14.844 0.16406-0.0469-0.0469-2.1797-0.1289-4.7422-0.17968-4.6211-0.0937-6.3867-0.33204-7.2734-0.98829-0.44922-0.33203-0.45312-0.49218-0.14453-5.6836 0.35547-5.9688 0.35156-9.2188-0.0195-12.824-0.32812-3.1719-0.23828-3.3477 1.8203-3.5664 0.42578-0.0469 0.85938-0.0703 1.2109-0.0742zm-78.672 0.1289c1.9805-0.0352 2.8633 0.11329 3.1133 0.45704 0.39453 0.53906 0.41016 3.043 0.03906 7.293-0.20312 2.3398-0.21484 4.293-0.04297 7.0078 0.16797 2.6484 0.16406 4.3164-0.02344 5.6289l-0.26172 1.8672-1.0781 0.32032c-0.63672 0.1914-2.75 0.36328-5.1602 0.42187-2.2422 0.0547-4.9961 0.13281-6.1211 0.17578-1.1211 0.043-5.332 0.0156-9.3594-0.0586-6.7539-0.125-7.4023-0.17578-8.4062-0.63672-0.97266-0.44922-1.1289-0.63672-1.4922-1.793-1.293-4.1172-1.5117-10.203-0.55078-15.336 0.89062-4.7656 0.82422-4.6133 2.0664-4.9805 0.84375-0.25 1.8281-0.26172 4.7812-0.0625 5.0664 0.33984 12.715 0.32422 17.645-0.0391 2.0781-0.15234 3.6641-0.24219 4.8516-0.26562zm15.586 0.86719c1.9258-4e-3 4.5039 0.0195 7.9844 0.043 11.68 0.082 12.824 0.125 13.238 0.50391 0.43359 0.39063 0.45703 0.875 0.45703 9.625v9.2188l-0.80078 1.2461c-0.44141 0.6875-0.95312 1.3711-1.1406 1.5234-0.30469 0.25-8.0195 0.60157-8.2461 0.375-0.04687-0.043-2.5469-0.0781-5.5586-0.0742-5.375 8e-3 -12.203-0.48047-13.047-0.92969-0.51562-0.27734-0.73047-3.8281-0.71094-11.766 0.01562-6.4414 0.14453-7.4375 1.0898-8.4297 1.0234-1.0781 0.95703-1.3242 6.7344-1.3359zm52.824 0.0469 1.2031 1.0781c0.66016 0.59375 1.2148 1.1797 1.2266 1.3008 0.0156 0.12109 0.17188 0.39062 0.35547 0.60156 0.25781 0.29687 0.28125 0.76562 0.11719 2.1758-0.11328 0.99219-0.1875 3.0977-0.16406 4.6797 0.0273 1.5859-0.0391 4.8477-0.14453 7.25l-0.19141 4.3711-1.2344 0.24609c-2.4453 0.49219-4.9141 0.67969-9.3906 0.71875-2.5117 0.0234-6.3438 0.0664-8.5234 0.10156-7.8867 0.12109-8.1016 0.0781-9.2578-1.8984-0.57031-0.97266-0.57031-0.98047-0.57031-9 4e-3 -4.4141-4e-3 -8.668-0.0117-9.4492-0.0117-0.88281 0.10547-1.543 0.30469-1.7422 0.25391-0.25391 2.8828-0.32812 13.301-0.375zm-28.965 24.246 8e-3 0.0117h-0.0234zm1.5508 1.7227c0.97266 0.70313 2.3516 0.90235 5.6289 1.0312 0.88672 0.0352 2.5391 0.043 4.2227 0.0469-0.3125 3.1914-0.69531 5.9375-1.2656 8.4688-0.32812 1.4492-0.81641 3.8281-1.0859 5.2773-0.6875 3.6992-1.7969 7.5-2.9297 10.059-0.53125 1.1992-1.6367 3.75-2.457 5.6641-0.82422 1.9102-1.9609 4.4766-2.5273 5.6992h-4e-3c-0.56641 1.2227-1.1055 2.2188-1.1992 2.2188-0.21094 0-1.5117-2.7891-4.0898-8.7578-1.082-2.5078-2.2148-5.0547-2.5195-5.6523-1.4023-2.7695-3.6641-12.777-4.5586-20.141-0.125-1.0547-0.20703-2-0.30469-2.9766 6.8398-0.0312 8.7539-0.10938 9.8008-0.89062 0.16797 2.0234 0.36719 5.8672 0.46094 9.2578 0.11328 4.0195 0.35937 7.9531 0.61328 9.7812 0.35156 2.5547 0.48828 3.0586 0.83203 3.0586 0.33594 0 0.48828-0.50781 0.86719-2.9375 0.40234-2.5859 0.46094-4.4062 0.48437-15.062 4e-3 -1.3633 0.0156-2.7578 0.0312-4.1445z"/>
</svg>
