<svg enable-background="new 0 0 438.549 438.549" version="1.1" viewBox="0 0 438.55 438.55" xml:space="preserve" xmlns="http://www.w3.org/2000/svg">
















<path d="m219.28 0.0019531a219.27 219.27 0 0 0-219.27 219.27 219.27 219.27 0 0 0 51.672 141.07 900 900 0 0 0 103.48-171.64 900 900 0 0 0 135.75-117.08l-12.59-12.592 36.891-36.891a219.27 219.27 0 0 0-95.93-22.148zm197.12 123.34-36.893 36.893-12.59-12.592a900 900 0 0 0-117.08 135.75 900 900 0 0 0-171.64 103.48 219.27 219.27 0 0 0 141.08 51.672 219.27 219.27 0 0 0 219.27-219.27 219.27 219.27 0 0 0-22.148-95.932zm-197.12 65.932a30 30 0 0 0-30 30 30 30 0 0 0 3.418 13.754l-134.49 134.49a219.27 219.27 0 0 0 12.826 12.826l134.48-134.48a30 30 0 0 0 13.758 3.418 30 30 0 0 0 30-30 30 30 0 0 0-30-30z" stop-color="#000000" stroke-dashoffset=".6" stroke-linejoin="round" stroke-miterlimit="10" stroke-width="2" style="paint-order:stroke fill markers"/></svg>
