<svg version="1.1" viewBox="0 0 256 256" xmlns="http://www.w3.org/2000/svg">
 <g transform="translate(-67.678 -18.684)">
  <path d="m195.67 20.712c-17.873 0-28.296 0.39995-32.797 3.7224-4.501 3.3222-2.4415 15.632-1.6484 18.232 0.79747 2.614 2.4763 4.9548 3.9463 5.5168 1.0617 0.40602 10.502-7.25e-4 11.029 0.8496 0.13078 0.20725-0.95988 4.9651-0.21209 10.502-8.3107-0.09696-23.253 5.9865-26.298 14.412-11.488-2.5241-26.655 20.69-23.437 25.791-3.5842 0.92232-14.72 14.932-9.7745 31.087-3.9673 3.863-7.4414 14.346-1.7779 28.986-1.4884 2.9518-8.9924 12.419-0.0132 29.773-5.3852 8.5866-3.6726 23.47-0.41935 32.181 9.7679 4.289 36.12 3.0826 43.044 0.17096 2.1554 1.1162 8.2526 1.6153 19.331 1.6695 1.1926 25.093 16.216 49.045 19.025 49.052 1.5902 3e-3 15.745-19.712 19.043-48.925 11.701-0.0242 19.279 0.70902 20.92-3.1801 2.5352 5.3897 35.09 4.0667 40.717 1.4082 3.3972-1.6048 7.5497-21.254 1.4816-31.966 4.6232-10.409 3.9056-28.639-0.16129-31.476 3.9536-9.475 1.25-24.134-2.675-27.583 3.0394-6.7751-1.2509-28.002-9.7708-29.598 1.029-12.374-9.3486-26.212-21.278-26.839-1.6597-7.7971-21.98-17.461-30.493-14.782 1.5151-5.9973 0.49326-9.596-0.36483-11.308 1.9999 0.18544 11.324 0.1624 12.626-0.09696 5.3842-1.075 6.994-20.793 2.5425-24.002-4.4516-3.2096-14.714-3.5943-32.582-3.5943-10.864 0 2.3e-4 -6.06e-4 3.6e-4 -9.39e-4 1.3e-4 -2.43e-4 10.868-8.45e-4 2.5e-4 -8.45e-4zm29.295 6.9101c2.2091 1.5889 1.3005 15.518-1.334 15.566-13.637 0.25209-47.468 0.31148-55.813-0.18665-2.2327-0.13331-3.2125-12.882-2.1058-14.739 2.4678-4.1398 55.571-3.2893 59.253-0.63993zm-16.737 31.279c-2.9073 0.89807-7.9374-3.7873-22.147-11.241 6.7939-0.3939 17.635 0.17814 21.596 0.61591 2.5247 0.27901 3.4586 9.7272 0.55121 10.625zm-25.328 2.2551c-2.1255-1.933-2.4312-11.549-0.66175-10.921 7.4638 2.6503 20.127 11.414 25.441 14.583 3.5491 2.1163 2.6866 10.958 0.49603 10.958-2.8663 0-22.912-12.471-25.275-14.621zm54.558 13.279c9e-3 1.052-12.071 22.06-17.598 23.599-5.345 1.4883-7.5241-0.37692-7.9435-2.0085 3.8227-5.3558 2.5956-13.939 0.87264-16.838 2.1507-5.073 1.6483-11.71-2e-3 -14.289 8.8248-1.9098 24.652 8.1213 24.671 9.5358zm-59.599-9.8224c-0.15636 0.12118-3.4511 7.3943 0.0847 14.165-4.5284 8.2279 0.92111 16.72 0.20726 18.539-0.79144 2.014-2.9115 1.8004-4.3559 1.9799-10.668-4.1807-20.369-24.488-19.218-25.613 6.3261-6.1815 14.755-9.3209 23.282-9.0716zm4.7833 13.458c-2.271-1.1745-1.8887-11.496 0.2575-10.395 9.2257 4.7312 16.889 8.8751 24.276 13.867 1.1744 0.79362 3.7086 9.184 0.99938 10.27-2.2015 0.88232-19.304-10.52-25.533-13.741zm77.009 21.432c-1.9638 3.3503-19.575 9.9709-24.604 13.923-0.15275 0.12111-3.7537 2.7855-8.3919-4.0638-6.1535-9.087 16.46-30.303 17.868-29.987 5.9123 1.3247 18.375 14.627 15.128 20.128zm-92.411 4.3161c1.2329 5.2314-7.4141 11.144-9.193 10.705-1.7789-0.43874-18.424-10.162-26.824-16.328-1.4848-2.6192 11.584-18.991 16.135-19.093 6.0325-0.13333 19.286 22.191 19.881 24.716zm17.521-20.155c7.5272 4.3877 18.626 10.581 22.744 13.257 1.9185 1.2471 1.4222 6.5345-0.12798 8.2786-2.1275 2.3943-22.359-9.7468-25.296-11.893-1.9571-1.4304-2.2631-12.525 2.6798-9.6433zm22.833 28.451c-0.0727 2.1601-15.771 0.51752-22.842 0.74658-4.765 0.15389-4.6454-14.085-1.7941-12.863 9.6065 4.1163 24.727 9.3605 24.636 12.116zm-52.24 8.0729c3.5614 2.7471-0.15523 15.796-2.0392 15.686-5.8184-0.34055-32.281-6.0976-32.742-8.2913-1.3772-6.5508 2.0255-20.389 7.7688-22.45 3.2839-1.178 20.113 9.7341 27.013 15.056zm108.03-14.329c3.9038-0.41932 9.1806 18.857 8.0947 20.595-2.1978 3.5177-29.286 9.5981-32.324 9.3976-4.4013-0.28966-6.376-14.812-1.4418-18.24 7.764-5.3955 16.413-10.757 25.671-11.752zm-34.95 14.708c2.8843 1.6536 2.1481 15.562-2.714 15.668-19.681 0.42904-39.304-1.0156-59.054 0.0485-6.6358 0.35752-6.1289-15.57-1.565-16.181 3.0445-0.40722 59.678-1.6321 63.334 0.4642zm-75.91 22.801c0.2618 1.2416 0.83505 16.226-2.55 16.636-10.757 0.45087-25.032-0.55022-30.743-3.3514-2.6687-1.3091-2.6054-19.288 0.75023-21.677 2.9072-2.069 31.771 4.7386 32.543 8.3919zm118.95-8.3924c3.3946 2.4199 4.6549 19.106 1.9078 20.654-5.0372 2.8382-20.353 1.909-30.652 4.6391-4.6638 1.2364-5.6734-14.458-3.9777-16.604 2.7958-3.5381 29.795-10.775 32.722-8.6886zm-92.915 6.6422c11.326 0.0242 22.654 0.0849 33.977 0.23875-3.7566 9.7447-2.6322 24.167-2.5515 45.025-6.6866 0.0364-10.867 0.0727-11.897 0.25695-0.0727-14.467 0.19755-32.059-2.0924-31.944-1.8668 0.097-2.5209 10.993-2.5463 31.916-1.5074-0.31996-4.8328-0.39996-12.086-0.38176 0.35875-23.942-0.58298-38.864-2.8041-45.11zm61.622 23.753c3.3124-1.623 32.094-3.2704 33.894-1.7571 3.1922 2.6837 2.6069 19.468 0.28969 22.099-2.3174 2.6305-33.301 1.9627-35.156 0.0243-1.8559-1.939-1.726-19.043 0.97319-20.365zm-90.317 20.773c-3.6454 0.21572-30.394 0.5563-31.71-1.2197-2.6879-3.6271-1.8646-19.155 0.2836-21.172 1.1744-1.1029 24.93-0.20724 31.554 1.4528 2.9313 0.73447 3.0119 20.753-0.12717 20.939zm89.894 31.08c-2.2522-0.48357-2.7337-25.923-0.21937-25.713 10.729 0.89564 24.651 0.70658 32.619 0.12604 4.5419-0.33087 4.2307 23.386 0.49208 25.036-3.738 1.6503-25.486 2.1412-32.892 0.55146zm-87.201-0.0132c-6.0804 1.6854-29.545 2.1643-33.696 0.25692-4.594-2.1227-2.622-25.395 0.0243-25.469 11.615-0.3212 22.688 0.1939 29.081 0.30904 8.0389 0.14423 6.3994 3.3006 6.4701 11.233 0.0727 7.9323 0.88111 12.905-1.8823 13.671zm38.443 0.89201c-10.32 0.78414-18.241 0.39874-28.512-0.44116-3.2955-0.26908-4.3666-20.823-1.9834-23.548 2.9323-3.3516 27.692-2.2676 32.121-0.57932 1.9035 0.726 1.9315 24.298-1.6258 24.568zm8.1581-1.714c-1.1599-0.97442-2.7092-22.767 1.0399-23.124 9.8589-0.93929 23.295-1.4123 29.884-1.5066 3.7044-0.0486 4.8852 25.524 0.0364 25.783-2.911 0.15521-27.024 2.158-30.962-1.1514zm9.7238 7.3975c-0.88958 15.434-6.6781 29.348-13.211 43.068-7.9698-13.35-11.103-28.017-13.215-43.23 7.879-0.0364 10.084-0.12605 11.29-1.0266 0.0364 8.4651 0.78777 25.512 2.1954 25.455 1.5601-0.0606 1.6945-17.455 1.5932-25.509 0 0 4.2496 1.2254 11.348 1.2422z" stroke-width="1.3333"/>
 </g>
</svg>
